<?xml version="1.0" encoding="UTF-8" standalone="no"?>
<!DOCTYPE svg PUBLIC "-//W3C//DTD SVG 1.1//EN" "http://www.w3.org/Graphics/SVG/1.1/DTD/svg11.dtd">
<svg xmlns="http://www.w3.org/2000/svg" version="1.1" viewBox="0 0 1024 1024">
<g stroke-width="2.0" fill="none" stroke-linecap="butt">
<path stroke="#90afbe" vector-effect="non-scaling-stroke" d="
  M 283.50 658.79
  L 260.71 716.50"
/>
<path stroke="#faf9f9" vector-effect="non-scaling-stroke" d="
  M 260.71 716.50
  Q 256.77 716.08 253.06 717.05
  Q 249.11 718.08 247.30 718.28
  Q 242.87 718.77 240.69 719.44
  Q 232.56 721.92 216.27 728.55
  Q 211.23 730.61 206.90 733.85
  Q 205.08 735.22 204.01 737.40
  Q 202.43 740.66 202.25 741.75
  Q 201.60 745.72 204.81 748.20
  Q 212.21 753.93 220.75 757.75
  Q 222.01 758.32 223.60 758.21
  Q 225.32 758.09 226.35 758.41
  Q 233.12 760.51 239.75 763.00
  Q 243.36 764.36 244.25 764.50
  Q 253.80 766.04 263.25 768.08
  Q 264.62 768.38 267.35 769.72
  Q 269.80 770.93 273.00 771.25
  Q 283.90 772.34 302.60 775.14
  Q 303.92 775.34 306.42 776.15
  Q 308.31 776.76 310.31 776.96
  Q 313.01 777.23 315.64 777.83
  Q 318.41 778.45 320.95 778.42
  Q 326.65 778.35 332.30 779.09
  Q 334.50 779.39 337.73 779.46
  Q 340.48 779.51 343.19 780.00
  Q 347.28 780.73 349.90 780.71
  Q 363.23 780.66 376.50 781.95
  Q 376.89 781.99 377.39 782.30
  Q 378.20 782.79 379.75 783.00
  Q 389.10 784.26 399.90 785.11
  Q 400.79 785.18 401.60 785.56
  Q 404.33 786.85 407.02 786.85
  Q 409.92 786.85 409.98 786.85
  Q 420.10 787.53 430.24 787.34
  Q 430.30 787.34 437.23 786.85
  Q 441.41 786.56 446.50 787.00
  Q 454.31 787.68 469.25 787.25
  Q 473.34 787.13 492.50 788.95
  C 492.80 788.98 493.12 788.90 493.41 788.72
  Q 494.81 787.85 496.49 788.06
  Q 500.73 788.58 504.92 788.10
  Q 509.62 787.56 512.13 787.66
  Q 529.18 788.34 546.25 787.96
  Q 560.50 787.65 574.75 787.25
  Q 587.46 786.89 593.00 787.50
  Q 597.69 788.01 608.21 786.59
  Q 612.07 786.06 616.33 786.09
  Q 622.25 786.13 624.50 785.50
  Q 627.94 784.53 631.47 784.30
  Q 635.34 784.05 638.45 783.53
  Q 641.93 782.95 645.50 782.95
  Q 651.83 782.96 658.15 782.52
  Q 661.37 782.29 664.84 782.64
  Q 669.57 783.12 671.56 782.81
  Q 684.66 780.78 688.06 781.19
  Q 692.49 781.72 695.00 781.25
  Q 715.03 777.52 730.81 776.94
  Q 733.44 776.84 735.38 776.31
  Q 738.79 775.38 739.77 775.29
  Q 747.33 774.56 749.50 774.00
  Q 754.66 772.66 759.95 772.18
  Q 762.50 771.95 764.94 771.30
  Q 767.41 770.64 769.92 770.18
  Q 772.60 769.68 775.72 768.42
  Q 780.01 766.69 784.63 766.17
  Q 785.81 766.04 788.72 765.18
  Q 790.69 764.59 793.50 764.50
  Q 797.99 764.36 803.96 761.36
  Q 806.58 760.05 809.32 759.46
  Q 815.15 758.21 820.63 755.89
  Q 823.96 754.48 826.84 751.78
  Q 831.09 747.80 831.94 746.19
  Q 834.66 741.01 831.64 737.61
  Q 831.08 736.97 825.95 733.28
  Q 823.03 731.19 819.95 729.34
  Q 817.17 727.68 814.01 726.94
  Q 811.95 726.46 810.17 725.41
  Q 807.74 723.98 806.57 723.57
  Q 795.65 719.80 785.75 717.75
  Q 781.00 716.77 775.32 716.74
  Q 775.22 716.74 772.22 716.45
  Q 770.05 716.24 768.06 717.31
  Q 767.73 717.95 767.00 717.54"
/>
<path stroke="#90afbe" vector-effect="non-scaling-stroke" d="
  M 767.00 717.54
  L 747.99 683.49
  Q 747.52 682.63 747.58 683.60
  Q 748.22 693.06 750.78 702.26
  Q 752.33 707.82 755.73 714.76
  Q 758.73 720.86 761.87 726.76
  C 762.11 727.21 761.78 727.75 761.27 727.75
  L 532.69 727.75
  C 532.10 727.75 531.58 727.99 531.27 728.39
  L 526.98 733.99
  Q 525.84 735.48 524.27 735.48
  L 497.25 735.51
  C 496.93 735.51 496.63 735.37 496.43 735.12
  L 491.27 728.43
  C 490.94 728.00 490.45 727.75 489.94 727.75
  L 276.46 727.75
  C 276.20 727.75 276.00 727.51 276.05 727.25
  Q 283.06 692.38 291.21 657.50"
/>
<path stroke="#c3ecfe" vector-effect="non-scaling-stroke" d="
  M 291.21 657.50
  Q 291.97 656.88 292.31 656.81
  Q 331.81 648.99 372.01 646.59
  Q 389.82 645.53 409.50 646.75
  Q 437.82 648.51 463.46 658.86
  Q 486.00 667.95 502.65 685.59
  Q 506.40 689.57 510.25 693.46"
/>
<path stroke="#a8cadd" vector-effect="non-scaling-stroke" d="
  M 510.25 693.46
  Q 510.70 694.65 511.60 695.44
  C 511.80 695.62 512.12 695.57 512.27 695.34
  Q 519.12 684.97 527.75 676.04"
/>
<path stroke="#add1e4" vector-effect="non-scaling-stroke" d="
  M 527.75 676.04
  L 533.50 671.04"
/>
<path stroke="#b1d6e9" vector-effect="non-scaling-stroke" d="
  M 533.50 671.04
  L 544.25 663.29"
/>
<path stroke="#b5dbee" vector-effect="non-scaling-stroke" d="
  M 544.25 663.29
  Q 545.68 662.79 546.79 661.75"
/>
<path stroke="#b7def1" vector-effect="non-scaling-stroke" d="
  M 546.79 661.75
  L 552.75 658.71"
/>
<path stroke="#b9e1f4" vector-effect="non-scaling-stroke" d="
  M 552.75 658.71
  L 557.00 656.71"
/>
<path stroke="#bee8fa" vector-effect="non-scaling-stroke" d="
  M 557.00 656.71
  Q 569.14 651.52 582.00 648.46"
/>
<path stroke="#c3ecfe" vector-effect="non-scaling-stroke" d="
  M 582.00 648.46
  Q 603.68 644.05 624.00 644.00
  Q 658.15 643.92 694.08 649.59
  Q 721.99 653.99 750.25 659.35
  Q 751.37 659.56 750.76 658.60
  L 682.01 550.64
  C 681.55 549.92 680.86 549.41 680.09 549.21
  L 655.46 542.98
  Q 653.76 542.56 655.43 542.09
  Q 673.66 536.99 690.11 528.28
  Q 700.11 522.98 707.56 516.56
  Q 720.66 505.28 726.45 489.30
  Q 729.80 480.07 730.33 469.75
  Q 731.38 449.14 721.23 430.48
  Q 710.74 411.19 694.02 396.97
  Q 687.71 391.60 680.43 386.46
  C 679.93 386.10 679.65 385.50 679.70 384.89
  Q 681.27 364.89 674.36 347.14
  Q 670.72 337.80 664.82 329.63
  Q 654.70 315.64 639.94 307.56
  Q 614.50 293.65 584.24 297.19
  C 583.93 297.23 583.63 297.11 583.42 296.88
  Q 568.27 280.04 547.56 269.69
  Q 528.33 260.07 507.65 261.47
  Q 498.34 262.09 488.15 265.55
  Q 465.38 273.28 447.55 290.05
  Q 443.81 293.57 440.13 296.77
  C 439.81 297.04 439.40 297.18 438.98 297.14
  Q 413.05 294.63 390.49 304.57
  Q 380.98 308.76 373.30 314.69
  Q 364.33 321.60 358.31 330.31
  Q 341.88 354.11 343.59 384.84
  C 343.64 385.76 343.19 386.64 342.41 387.14
  Q 318.90 402.11 303.85 426.81
  Q 289.91 449.71 292.75 475.00
  Q 294.88 494.00 306.85 509.05
  Q 312.69 516.39 321.26 522.82
  Q 333.79 532.21 348.83 537.44
  Q 350.49 538.02 348.74 538.25
  L 318.03 542.29
  C 317.59 542.35 317.22 542.63 317.03 543.04
  L 263.37 661.54
  Q 262.88 662.61 264.04 662.41
  Q 272.56 660.93 281.50 658.75
  Q 282.79 658.43 283.50 658.79"
/>
<path stroke="#83d7fb" vector-effect="non-scaling-stroke" d="
  M 582.00 648.46
  Q 580.54 647.24 581.05 645.03
  Q 581.23 644.24 581.04 643.44
  Q 578.27 632.03 578.25 621.50
  Q 578.24 612.47 579.44 589.19
  Q 579.85 581.21 579.25 568.25
  Q 578.98 562.40 575.44 558.81
  Q 574.05 557.41 573.25 552.79"
/>
<path stroke="#559dbe" vector-effect="non-scaling-stroke" d="
  M 573.25 552.79
  Q 592.05 537.10 615.90 531.29
  Q 623.59 529.42 651.75 523.00
  Q 668.93 519.08 685.88 508.92
  Q 713.17 492.55 711.33 462.65
  Q 710.73 452.90 706.62 443.34
  Q 700.73 429.62 690.01 418.74
  Q 676.48 405.00 659.39 394.73
  C 659.03 394.51 658.85 394.08 658.96 393.67
  Q 663.95 374.41 658.02 356.54
  Q 654.81 346.85 648.73 338.94
  Q 637.50 324.33 619.10 318.32
  Q 600.35 312.20 579.89 317.26
  C 579.07 317.46 578.20 317.20 577.63 316.59
  Q 570.26 308.74 561.43 301.09
  Q 549.91 291.11 535.95 285.65
  Q 526.81 282.08 518.60 281.31
  Q 509.59 280.45 500.52 282.36
  Q 487.55 285.11 477.81 291.06
  Q 459.85 302.05 445.04 316.83
  C 444.64 317.23 444.07 317.39 443.52 317.25
  Q 415.85 310.42 391.31 324.31
  Q 374.17 334.01 366.81 351.56
  Q 358.08 372.39 364.39 394.46
  C 364.48 394.78 364.34 395.11 364.06 395.26
  Q 343.53 406.25 328.25 423.97
  Q 320.59 432.85 316.06 443.06
  Q 309.51 457.85 311.50 474.25
  Q 313.07 487.22 321.43 497.20
  Q 326.86 503.68 336.80 509.85
  Q 350.77 518.51 366.99 522.54
  Q 376.80 524.98 386.74 526.82
  Q 401.40 529.53 415.66 533.90
  Q 438.56 540.91 455.49 557.76
  Q 463.46 565.70 470.66 574.33
  Q 474.35 578.75 478.48 582.77
  Q 483.24 587.42 489.50 589.15
  Q 492.78 590.05 495.04 589.38
  Q 497.90 588.54 499.71 585.75"
/>
<path stroke="#c3edff" vector-effect="non-scaling-stroke" d="
  M 499.71 585.75
  Q 505.48 593.37 509.06 601.19
  Q 509.44 602.02 509.96 601.50"
/>
<path stroke="#6db9de" vector-effect="non-scaling-stroke" d="
  M 509.96 601.50
  Q 511.18 613.72 510.79 626.00"
/>
<path stroke="#6db9de" vector-effect="non-scaling-stroke" d="
  M 510.79 626.00
  L 510.79 652.00"
/>
<path stroke="#6db9de" vector-effect="non-scaling-stroke" d="
  M 510.79 652.00
  Q 510.72 672.00 510.75 692.00
  Q 510.75 692.81 510.25 693.46"
/>
<path stroke="#559ebf" vector-effect="non-scaling-stroke" d="
  M 291.21 657.50
  Q 287.22 657.42 283.50 658.79"
/>
<path stroke="#5099ba" vector-effect="non-scaling-stroke" d="
  M 573.25 552.79
  Q 562.71 562.29 553.71 573.25"
/>
<path stroke="#4b92b4" vector-effect="non-scaling-stroke" d="
  M 553.71 573.25
  L 549.21 578.25"
/>
<path stroke="#498fb1" vector-effect="non-scaling-stroke" d="
  M 549.21 578.25
  L 544.71 582.50"
/>
<path stroke="#478cae" vector-effect="non-scaling-stroke" d="
  M 544.71 582.50
  L 541.46 584.50"
/>
<path stroke="#4387a9" vector-effect="non-scaling-stroke" d="
  M 541.46 584.50
  Q 536.93 586.81 532.00 588.04"
/>
<path stroke="#3f82a4" vector-effect="non-scaling-stroke" d="
  M 532.00 588.04
  L 527.54 587.50"
/>
<path stroke="#3a7b9d" vector-effect="non-scaling-stroke" d="
  M 527.54 587.50
  Q 524.07 585.40 521.79 582.00"
/>
<path stroke="#90afbe" vector-effect="non-scaling-stroke" d="
  M 521.79 582.00
  Q 521.12 579.99 521.31 579.06
  Q 521.75 576.91 521.75 573.25
  Q 521.75 504.25 521.58 435.25
  Q 521.56 426.90 522.56 421.81
  Q 524.29 413.07 532.31 407.56
  Q 541.28 401.41 553.25 401.40
  Q 558.63 401.40 565.30 401.83
  C 565.69 401.86 566.05 401.63 566.19 401.27
  Q 574.17 380.85 586.24 363.80
  Q 590.23 358.16 593.81 356.06
  Q 597.74 353.76 601.69 354.81
  Q 607.08 356.25 608.62 360.84
  Q 609.78 364.25 608.06 369.05
  Q 606.01 374.79 601.94 380.19
  Q 592.43 392.79 588.99 408.61
  Q 587.40 415.87 588.13 419.45
  Q 589.62 426.79 599.25 426.00
  Q 612.98 424.87 622.89 413.89
  Q 636.47 398.84 637.89 379.21
  Q 638.49 370.97 636.63 364.43
  Q 634.47 356.83 629.44 351.06
  Q 615.38 334.94 593.02 337.46
  Q 581.03 338.80 568.95 343.21
  C 568.52 343.36 568.05 343.11 567.94 342.66
  Q 561.45 315.59 538.11 303.09
  Q 528.72 298.06 519.25 296.83
  Q 505.51 295.06 492.44 300.69
  Q 463.85 313.00 454.58 342.96
  C 454.50 343.22 454.22 343.36 453.97 343.26
  Q 439.13 337.77 427.00 337.00
  Q 409.88 335.92 397.73 346.64
  Q 390.23 353.25 387.09 361.99
  Q 383.87 370.97 385.25 381.25
  Q 387.73 399.78 399.60 413.41
  Q 409.94 425.27 425.00 426.00
  Q 432.39 426.36 434.46 420.87
  Q 435.66 417.68 434.55 411.59
  Q 431.59 395.18 421.63 381.61
  Q 418.08 376.78 415.35 371.45
  Q 413.72 368.28 413.50 365.25
  Q 412.98 358.12 419.58 355.45
  Q 424.61 353.41 428.69 356.06
  Q 431.68 358.01 434.34 361.32
  Q 435.25 362.46 438.79 367.56
  Q 449.56 383.03 456.52 401.43
  C 456.67 401.83 457.08 402.07 457.50 402.00
  Q 461.99 401.26 466.50 401.29
  Q 471.51 401.31 475.49 401.88
  Q 481.97 402.81 487.65 405.87
  Q 493.73 409.15 497.15 414.01
  Q 501.50 420.22 501.50 428.25
  Q 501.50 490.88 501.65 553.50
  Q 501.69 568.72 501.00 580.25
  Q 500.86 582.66 499.71 585.75"
/>
<path stroke="#8caab9" vector-effect="non-scaling-stroke" d="
  M 767.00 717.54
  L 788.95 756.75
  C 789.06 756.95 788.92 757.19 788.69 757.19
  L 758.25 757.29"
/>
<path stroke="#87a6b5" vector-effect="non-scaling-stroke" d="
  M 758.25 757.29
  L 698.25 757.29"
/>
<path stroke="#82a1b0" vector-effect="non-scaling-stroke" d="
  M 698.25 757.29
  Q 618.25 757.22 538.25 757.18
  Q 536.61 757.18 535.00 757.54"
/>
<path stroke="#7796a5" vector-effect="non-scaling-stroke" d="
  M 535.00 757.54
  Q 534.41 757.57 533.91 757.34
  Q 533.50 757.16 533.16 756.60
  Q 531.76 754.24 530.25 751.96"
/>
<path stroke="#6f8e9d" vector-effect="non-scaling-stroke" d="
  M 530.25 751.96
  L 527.96 748.25"
/>
<path stroke="#698997" vector-effect="non-scaling-stroke" d="
  M 527.96 748.25
  L 524.83 742.86
  C 524.68 742.60 524.39 742.43 524.06 742.41
  Q 511.52 741.62 498.26 742.29
  C 497.81 742.31 497.41 742.55 497.20 742.92
  L 494.29 748.00"
/>
<path stroke="#6f8e9d" vector-effect="non-scaling-stroke" d="
  M 494.29 748.00
  L 492.79 750.50"
/>
<path stroke="#7796a5" vector-effect="non-scaling-stroke" d="
  M 492.79 750.50
  L 488.96 757.25"
/>
<path stroke="#82a1b0" vector-effect="non-scaling-stroke" d="
  M 488.96 757.25
  L 325.50 757.29"
/>
<path stroke="#87a6b5" vector-effect="non-scaling-stroke" d="
  M 325.50 757.29
  L 287.50 757.29"
/>
<path stroke="#8caab9" vector-effect="non-scaling-stroke" d="
  M 287.50 757.29
  L 244.79 757.25
  C 244.43 757.25 244.18 756.88 244.32 756.54
  L 260.71 716.50"
/>
<path stroke="#579ec3" vector-effect="non-scaling-stroke" d="
  M 527.54 587.50
  Q 527.20 588.83 526.86 590.16
  Q 526.50 591.50 526.53 592.87
  Q 526.92 610.70 526.04 628.50
  Q 525.71 635.15 525.75 651.50
  Q 525.78 665.02 527.44 675.44
  Q 527.19 675.89 527.75 676.04"
/>
<path stroke="#5197bc" vector-effect="non-scaling-stroke" d="
  M 510.79 652.00
  Q 511.00 656.09 511.36 652.98
  Q 512.18 645.86 512.07 638.69
  Q 512.06 638.54 512.09 633.81
  Q 512.11 629.71 511.27 625.69
  Q 511.20 625.36 511.00 625.67
  L 510.79 626.00"
/>
<path stroke="#a8cbdd" vector-effect="non-scaling-stroke" d="
  M 521.79 582.00
  Q 513.86 590.54 509.96 601.50"
/>
<path stroke="#78cbf1" vector-effect="non-scaling-stroke" d="
  M 557.00 656.71
  Q 557.23 655.05 557.01 653.41
  Q 556.59 650.28 556.58 650.17
  Q 555.37 630.69 556.00 617.75
  Q 556.73 602.75 557.09 587.75
  Q 557.19 583.32 555.48 579.26
  Q 555.31 578.84 555.22 579.27
  Q 555.18 579.45 555.14 579.27
  L 553.71 573.25"
/>
<path stroke="#60aad0" vector-effect="non-scaling-stroke" d="
  M 533.50 671.04
  Q 532.55 671.22 532.69 670.69
  Q 531.31 668.59 531.25 667.00
  Q 530.19 637.14 531.95 607.32
  Q 532.24 602.43 532.14 597.68
  Q 532.04 592.86 532.00 588.04"
/>
<path stroke="#71c1e7" vector-effect="non-scaling-stroke" d="
  M 552.75 658.71
  Q 550.62 655.25 550.75 649.75
  Q 550.96 640.71 551.15 635.25
  Q 551.50 625.32 551.52 620.75
  Q 551.56 606.88 551.75 593.00
  Q 551.82 588.05 549.21 578.25"
/>
<path stroke="#6dbce2" vector-effect="non-scaling-stroke" d="
  M 546.79 661.75
  Q 546.77 660.75 546.12 660.07
  C 545.88 659.83 545.76 659.53 545.77 659.25
  Q 546.56 639.00 545.90 618.75
  Q 545.52 606.88 545.69 595.00
  Q 545.77 588.71 544.71 582.50"
/>
<path stroke="#68b4da" vector-effect="non-scaling-stroke" d="
  M 544.25 663.29
  Q 542.36 660.63 542.23 657.25
  Q 541.56 638.62 542.61 620.01
  Q 543.47 604.73 542.52 589.46
  Q 542.45 588.36 542.04 586.99
  Q 541.68 585.76 541.46 584.50"
/>
<path stroke="#e7e7e7" vector-effect="non-scaling-stroke" d="
  M 325.50 757.29
  L 324.79 757.54
  Q 324.35 757.69 324.81 757.70
  Q 328.03 757.80 331.25 757.90
  Q 334.14 757.98 332.20 758.37
  Q 331.82 758.44 332.18 758.57
  Q 342.79 762.26 348.25 762.75
  Q 354.83 763.34 371.94 765.56
  Q 401.11 769.35 449.00 771.94
  Q 460.93 772.58 472.88 772.56
  C 473.07 772.56 473.27 772.62 473.45 772.72
  Q 473.58 772.80 473.71 772.87
  Q 473.98 773.00 474.31 773.01
  Q 484.77 773.37 495.23 773.86
  Q 495.30 773.86 501.26 774.33
  Q 506.30 774.72 512.50 774.25
  Q 521.50 773.57 541.91 773.33
  Q 549.12 773.24 558.57 772.73
  Q 566.90 772.28 575.24 772.11
  Q 587.34 771.86 595.24 771.40
  Q 609.50 770.57 623.76 769.93
  Q 634.93 769.42 643.69 768.38
  Q 672.86 764.89 701.70 759.18
  Q 703.33 758.86 701.67 758.72
  Q 699.83 758.57 698.25 757.29"
/>
<path stroke="#b6b7b6" vector-effect="non-scaling-stroke" d="
  M 527.96 748.25
  Q 526.16 749.42 524.00 749.45
  Q 515.95 749.58 507.91 749.19
  Q 506.11 749.10 501.13 748.46
  Q 497.73 748.01 494.29 748.00"
/>
<path stroke="#c3c4c3" vector-effect="non-scaling-stroke" d="
  M 530.25 751.96
  Q 528.11 752.71 525.00 752.75
  Q 509.55 752.93 496.25 751.25
  Q 493.67 750.92 492.79 750.50"
/>
<path stroke="#f1f0f0" vector-effect="non-scaling-stroke" d="
  M 287.50 757.29
  L 279.02 758.50
  Q 278.16 758.62 278.96 758.90
  Q 284.88 760.96 290.86 762.12
  Q 301.39 764.16 302.91 764.51
  Q 324.19 769.41 350.75 772.00
  Q 415.06 778.28 467.50 779.25
  Q 477.02 779.43 482.83 779.49
  Q 491.07 779.57 498.17 779.71
  Q 516.07 780.04 543.44 779.31
  Q 596.22 777.91 613.00 777.00
  Q 620.64 776.59 626.16 776.40
  Q 635.12 776.10 639.33 775.80
  Q 675.38 773.26 711.27 769.10
  Q 713.82 768.80 717.16 768.05
  Q 720.09 767.38 723.05 766.89
  Q 728.83 765.93 731.86 765.17
  Q 735.99 764.14 740.12 763.08
  Q 743.85 762.11 748.48 761.44
  Q 753.64 760.68 758.76 759.60
  C 759.09 759.53 759.38 759.35 759.55 759.09
  Q 760.74 757.32 758.25 757.29"
/>
<path stroke="#d7d7d7" vector-effect="non-scaling-stroke" d="
  M 535.00 757.54
  Q 533.52 760.08 530.69 760.07
  Q 528.87 760.06 528.80 760.07
  Q 513.07 761.16 492.75 759.75
  Q 489.68 759.54 488.96 757.25"
/>
<path stroke="#90afbe" vector-effect="non-scaling-stroke" d="
  M 344.44 486.31
  Q 362.95 500.85 386.24 502.96
  C 386.50 502.98 386.72 502.75 386.69 502.49
  Q 384.30 481.17 369.54 465.71
  Q 367.58 463.67 365.68 461.56
  Q 359.24 454.42 363.52 448.09
  Q 366.44 443.77 371.32 442.90
  Q 376.68 441.94 381.19 446.31
  Q 407.74 472.09 414.97 508.72
  C 415.03 509.03 415.26 509.28 415.56 509.37
  Q 450.24 519.76 475.58 544.71
  Q 476.23 545.35 476.24 544.44
  Q 476.40 533.25 476.22 522.50
  Q 476.10 515.47 474.75 510.00
  Q 472.55 501.10 463.94 497.06
  Q 456.86 493.75 448.65 487.82
  Q 434.32 477.48 427.68 461.06
  Q 426.02 456.96 423.15 453.75
  Q 421.32 451.70 418.05 450.37
  Q 413.27 448.43 408.42 446.66
  Q 401.92 444.29 398.97 442.62
  Q 391.24 438.25 385.28 431.48
  Q 379.57 425.00 375.16 417.51
  C 374.91 417.09 374.37 416.94 373.94 417.16
  Q 360.55 424.04 349.54 434.79
  Q 343.34 440.83 339.16 448.42
  Q 336.08 454.01 334.92 460.14
  Q 333.67 466.75 335.10 472.35
  Q 337.21 480.63 344.44 486.31"
/>
<path stroke="#90afbe" vector-effect="non-scaling-stroke" d="
  M 650.94 442.56
  Q 658.29 443.10 660.56 450.56
  Q 661.90 454.94 659.43 458.64
  Q 657.75 461.18 654.81 464.06
  Q 638.97 479.64 636.25 502.34
  C 636.20 502.70 636.51 503.00 636.87 502.95
  Q 649.48 501.12 661.53 496.00
  Q 672.02 491.54 679.94 484.44
  Q 690.27 475.17 687.62 460.93
  Q 686.38 454.23 683.31 448.69
  Q 677.83 438.77 668.97 431.01
  Q 659.70 422.90 648.47 417.11
  C 647.98 416.85 647.37 417.03 647.10 417.51
  Q 642.91 424.84 637.20 431.47
  Q 629.58 440.32 618.73 444.71
  Q 611.25 447.74 607.00 449.00
  Q 603.07 450.16 600.30 452.58
  Q 598.36 454.26 596.08 458.60
  Q 593.87 462.79 591.66 466.98
  Q 588.77 472.45 586.79 475.13
  Q 583.59 479.44 579.54 483.04
  Q 571.25 490.39 561.34 495.37
  Q 560.05 496.02 556.19 498.44
  Q 551.18 501.57 549.06 506.56
  Q 547.57 510.08 547.16 514.63
  Q 547.07 515.55 546.84 522.86
  Q 546.49 533.93 546.98 544.99
  Q 547.00 545.50 547.35 545.15
  Q 572.95 519.67 607.71 509.57
  C 608.00 509.49 608.23 509.25 608.29 508.94
  Q 614.35 478.47 634.11 454.60
  Q 638.24 449.61 643.17 445.41
  Q 646.87 442.26 650.94 442.56"
/>
<path stroke="#90afbe" vector-effect="non-scaling-stroke" d="
  M 454.94 463.31
  Q 463.98 471.36 475.27 477.37
  C 475.54 477.51 475.87 477.33 475.89 477.03
  Q 476.46 470.37 477.17 465.02
  Q 479.56 446.95 478.28 428.77
  Q 478.07 425.82 475.69 424.81
  Q 471.95 423.24 467.75 423.35
  Q 464.06 423.45 460.10 425.22
  Q 447.11 431.03 446.04 445.29
  Q 445.66 450.36 447.75 454.38
  Q 450.19 459.09 454.94 463.31"
/>
<path stroke="#90afbe" vector-effect="non-scaling-stroke" d="
  M 568.14 428.85
  Q 560.34 421.97 549.94 423.94
  Q 547.51 424.40 546.07 425.51
  Q 544.79 426.51 544.45 428.99
  Q 543.40 436.80 544.00 446.00
  Q 545.20 464.33 547.00 477.44
  C 547.03 477.68 547.29 477.81 547.49 477.69
  Q 559.47 470.76 569.66 461.42
  Q 576.89 454.78 576.44 445.56
  Q 575.96 435.75 568.14 428.85"
/>
<path stroke="#90afbe" vector-effect="non-scaling-stroke" d="
  M 482.04 366.97
  Q 490.14 374.14 499.31 379.87
  Q 499.38 379.91 501.51 381.34
  Q 504.71 383.50 508.39 383.84
  Q 511.51 384.13 516.18 382.12
  Q 529.62 376.34 539.06 370.06
  Q 545.77 365.60 546.49 357.73
  Q 546.87 353.47 546.23 350.28
  Q 545.44 346.33 542.44 343.56
  Q 533.57 335.37 521.95 327.80
  Q 517.47 324.88 514.40 324.59
  Q 510.28 324.20 505.94 326.19
  Q 494.04 331.62 484.93 337.94
  Q 480.25 341.18 478.57 344.09
  Q 476.36 347.92 476.25 353.00
  Q 476.07 361.68 482.04 366.97"
/>
<path stroke="#90afbe" vector-effect="non-scaling-stroke" d="
  M 499.32 355.75
  Q 504.22 358.88 509.36 361.71
  Q 511.08 362.66 512.93 362.01
  Q 518.88 359.94 524.83 356.55
  Q 526.87 355.39 525.03 353.94
  Q 520.56 350.41 514.14 347.08
  Q 512.74 346.35 511.23 346.81
  Q 506.26 348.29 500.89 351.05
  Q 498.63 352.22 498.48 352.32
  Q 496.29 353.82 499.32 355.75"
/>
</g>
<path fill="#fefdfd" d="
  M 0.00 0.00
  Q 512.00 0.00 1024.00 0.00
  Q 1024.00 512.00 1024.00 1024.00
  Q 512.00 1024.00 0.00 1024.00
  Q 0.00 512.00 0.00 0.00
  Z
  M 283.50 658.79
  L 260.71 716.50
  Q 256.77 716.08 253.06 717.05
  Q 249.11 718.08 247.30 718.28
  Q 242.87 718.77 240.69 719.44
  Q 232.56 721.92 216.27 728.55
  Q 211.23 730.61 206.90 733.85
  Q 205.08 735.22 204.01 737.40
  Q 202.43 740.66 202.25 741.75
  Q 201.60 745.72 204.81 748.20
  Q 212.21 753.93 220.75 757.75
  Q 222.01 758.32 223.60 758.21
  Q 225.32 758.09 226.35 758.41
  Q 233.12 760.51 239.75 763.00
  Q 243.36 764.36 244.25 764.50
  Q 253.80 766.04 263.25 768.08
  Q 264.62 768.38 267.35 769.72
  Q 269.80 770.93 273.00 771.25
  Q 283.90 772.34 302.60 775.14
  Q 303.92 775.34 306.42 776.15
  Q 308.31 776.76 310.31 776.96
  Q 313.01 777.23 315.64 777.83
  Q 318.41 778.45 320.95 778.42
  Q 326.65 778.35 332.30 779.09
  Q 334.50 779.39 337.73 779.46
  Q 340.48 779.51 343.19 780.00
  Q 347.28 780.73 349.90 780.71
  Q 363.23 780.66 376.50 781.95
  Q 376.89 781.99 377.39 782.30
  Q 378.20 782.79 379.75 783.00
  Q 389.10 784.26 399.90 785.11
  Q 400.79 785.18 401.60 785.56
  Q 404.33 786.85 407.02 786.85
  Q 409.92 786.85 409.98 786.85
  Q 420.10 787.53 430.24 787.34
  Q 430.30 787.34 437.23 786.85
  Q 441.41 786.56 446.50 787.00
  Q 454.31 787.68 469.25 787.25
  Q 473.34 787.13 492.50 788.95
  C 492.80 788.98 493.12 788.90 493.41 788.72
  Q 494.81 787.85 496.49 788.06
  Q 500.73 788.58 504.92 788.10
  Q 509.62 787.56 512.13 787.66
  Q 529.18 788.34 546.25 787.96
  Q 560.50 787.65 574.75 787.25
  Q 587.46 786.89 593.00 787.50
  Q 597.69 788.01 608.21 786.59
  Q 612.07 786.06 616.33 786.09
  Q 622.25 786.13 624.50 785.50
  Q 627.94 784.53 631.47 784.30
  Q 635.34 784.05 638.45 783.53
  Q 641.93 782.95 645.50 782.95
  Q 651.83 782.96 658.15 782.52
  Q 661.37 782.29 664.84 782.64
  Q 669.57 783.12 671.56 782.81
  Q 684.66 780.78 688.06 781.19
  Q 692.49 781.72 695.00 781.25
  Q 715.03 777.52 730.81 776.94
  Q 733.44 776.84 735.38 776.31
  Q 738.79 775.38 739.77 775.29
  Q 747.33 774.56 749.50 774.00
  Q 754.66 772.66 759.95 772.18
  Q 762.50 771.95 764.94 771.30
  Q 767.41 770.64 769.92 770.18
  Q 772.60 769.68 775.72 768.42
  Q 780.01 766.69 784.63 766.17
  Q 785.81 766.04 788.72 765.18
  Q 790.69 764.59 793.50 764.50
  Q 797.99 764.36 803.96 761.36
  Q 806.58 760.05 809.32 759.46
  Q 815.15 758.21 820.63 755.89
  Q 823.96 754.48 826.84 751.78
  Q 831.09 747.80 831.94 746.19
  Q 834.66 741.01 831.64 737.61
  Q 831.08 736.97 825.95 733.28
  Q 823.03 731.19 819.95 729.34
  Q 817.17 727.68 814.01 726.94
  Q 811.95 726.46 810.17 725.41
  Q 807.74 723.98 806.57 723.57
  Q 795.65 719.80 785.75 717.75
  Q 781.00 716.77 775.32 716.74
  Q 775.22 716.74 772.22 716.45
  Q 770.05 716.24 768.06 717.31
  Q 767.73 717.95 767.00 717.54
  L 747.99 683.49
  Q 747.52 682.63 747.58 683.60
  Q 748.22 693.06 750.78 702.26
  Q 752.33 707.82 755.73 714.76
  Q 758.73 720.86 761.87 726.76
  C 762.11 727.21 761.78 727.75 761.27 727.75
  L 532.69 727.75
  C 532.10 727.75 531.58 727.99 531.27 728.39
  L 526.98 733.99
  Q 525.84 735.48 524.27 735.48
  L 497.25 735.51
  C 496.93 735.51 496.63 735.37 496.43 735.12
  L 491.27 728.43
  C 490.94 728.00 490.45 727.75 489.94 727.75
  L 276.46 727.75
  C 276.20 727.75 276.00 727.51 276.05 727.25
  Q 283.06 692.38 291.21 657.50
  Q 291.97 656.88 292.31 656.81
  Q 331.81 648.99 372.01 646.59
  Q 389.82 645.53 409.50 646.75
  Q 437.82 648.51 463.46 658.86
  Q 486.00 667.95 502.65 685.59
  Q 506.40 689.57 510.25 693.46
  Q 510.70 694.65 511.60 695.44
  C 511.80 695.62 512.12 695.57 512.27 695.34
  Q 519.12 684.97 527.75 676.04
  L 533.50 671.04
  L 544.25 663.29
  Q 545.68 662.79 546.79 661.75
  L 552.75 658.71
  L 557.00 656.71
  Q 569.14 651.52 582.00 648.46
  Q 603.68 644.05 624.00 644.00
  Q 658.15 643.92 694.08 649.59
  Q 721.99 653.99 750.25 659.35
  Q 751.37 659.56 750.76 658.60
  L 682.01 550.64
  C 681.55 549.92 680.86 549.41 680.09 549.21
  L 655.46 542.98
  Q 653.76 542.56 655.43 542.09
  Q 673.66 536.99 690.11 528.28
  Q 700.11 522.98 707.56 516.56
  Q 720.66 505.28 726.45 489.30
  Q 729.80 480.07 730.33 469.75
  Q 731.38 449.14 721.23 430.48
  Q 710.74 411.19 694.02 396.97
  Q 687.71 391.60 680.43 386.46
  C 679.93 386.10 679.65 385.50 679.70 384.89
  Q 681.27 364.89 674.36 347.14
  Q 670.72 337.80 664.82 329.63
  Q 654.70 315.64 639.94 307.56
  Q 614.50 293.65 584.24 297.19
  C 583.93 297.23 583.63 297.11 583.42 296.88
  Q 568.27 280.04 547.56 269.69
  Q 528.33 260.07 507.65 261.47
  Q 498.34 262.09 488.15 265.55
  Q 465.38 273.28 447.55 290.05
  Q 443.81 293.57 440.13 296.77
  C 439.81 297.04 439.40 297.18 438.98 297.14
  Q 413.05 294.63 390.49 304.57
  Q 380.98 308.76 373.30 314.69
  Q 364.33 321.60 358.31 330.31
  Q 341.88 354.11 343.59 384.84
  C 343.64 385.76 343.19 386.64 342.41 387.14
  Q 318.90 402.11 303.85 426.81
  Q 289.91 449.71 292.75 475.00
  Q 294.88 494.00 306.85 509.05
  Q 312.69 516.39 321.26 522.82
  Q 333.79 532.21 348.83 537.44
  Q 350.49 538.02 348.74 538.25
  L 318.03 542.29
  C 317.59 542.35 317.22 542.63 317.03 543.04
  L 263.37 661.54
  Q 262.88 662.61 264.04 662.41
  Q 272.56 660.93 281.50 658.75
  Q 282.79 658.43 283.50 658.79
  Z"
/>
<path fill="#88dbff" d="
  M 582.00 648.46
  Q 580.54 647.24 581.05 645.03
  Q 581.23 644.24 581.04 643.44
  Q 578.27 632.03 578.25 621.50
  Q 578.24 612.47 579.44 589.19
  Q 579.85 581.21 579.25 568.25
  Q 578.98 562.40 575.44 558.81
  Q 574.05 557.41 573.25 552.79
  Q 592.05 537.10 615.90 531.29
  Q 623.59 529.42 651.75 523.00
  Q 668.93 519.08 685.88 508.92
  Q 713.17 492.55 711.33 462.65
  Q 710.73 452.90 706.62 443.34
  Q 700.73 429.62 690.01 418.74
  Q 676.48 405.00 659.39 394.73
  C 659.03 394.51 658.85 394.08 658.96 393.67
  Q 663.95 374.41 658.02 356.54
  Q 654.81 346.85 648.73 338.94
  Q 637.50 324.33 619.10 318.32
  Q 600.35 312.20 579.89 317.26
  C 579.07 317.46 578.20 317.20 577.63 316.59
  Q 570.26 308.74 561.43 301.09
  Q 549.91 291.11 535.95 285.65
  Q 526.81 282.08 518.60 281.31
  Q 509.59 280.45 500.52 282.36
  Q 487.55 285.11 477.81 291.06
  Q 459.85 302.05 445.04 316.83
  C 444.64 317.23 444.07 317.39 443.52 317.25
  Q 415.85 310.42 391.31 324.31
  Q 374.17 334.01 366.81 351.56
  Q 358.08 372.39 364.39 394.46
  C 364.48 394.78 364.34 395.11 364.06 395.26
  Q 343.53 406.25 328.25 423.97
  Q 320.59 432.85 316.06 443.06
  Q 309.51 457.85 311.50 474.25
  Q 313.07 487.22 321.43 497.20
  Q 326.86 503.68 336.80 509.85
  Q 350.77 518.51 366.99 522.54
  Q 376.80 524.98 386.74 526.82
  Q 401.40 529.53 415.66 533.90
  Q 438.56 540.91 455.49 557.76
  Q 463.46 565.70 470.66 574.33
  Q 474.35 578.75 478.48 582.77
  Q 483.24 587.42 489.50 589.15
  Q 492.78 590.05 495.04 589.38
  Q 497.90 588.54 499.71 585.75
  Q 505.48 593.37 509.06 601.19
  Q 509.44 602.02 509.96 601.50
  Q 511.18 613.72 510.79 626.00
  L 510.79 652.00
  Q 510.72 672.00 510.75 692.00
  Q 510.75 692.81 510.25 693.46
  Q 506.40 689.57 502.65 685.59
  Q 486.00 667.95 463.46 658.86
  Q 437.82 648.51 409.50 646.75
  Q 389.82 645.53 372.01 646.59
  Q 331.81 648.99 292.31 656.81
  Q 291.97 656.88 291.21 657.50
  Q 287.22 657.42 283.50 658.79
  Q 282.79 658.43 281.50 658.75
  Q 272.56 660.93 264.04 662.41
  Q 262.88 662.61 263.37 661.54
  L 317.03 543.04
  C 317.22 542.63 317.59 542.35 318.03 542.29
  L 348.74 538.25
  Q 350.49 538.02 348.83 537.44
  Q 333.79 532.21 321.26 522.82
  Q 312.69 516.39 306.85 509.05
  Q 294.88 494.00 292.75 475.00
  Q 289.91 449.71 303.85 426.81
  Q 318.90 402.11 342.41 387.14
  C 343.19 386.64 343.64 385.76 343.59 384.84
  Q 341.88 354.11 358.31 330.31
  Q 364.33 321.60 373.30 314.69
  Q 380.98 308.76 390.49 304.57
  Q 413.05 294.63 438.98 297.14
  C 439.40 297.18 439.81 297.04 440.13 296.77
  Q 443.81 293.57 447.55 290.05
  Q 465.38 273.28 488.15 265.55
  Q 498.34 262.09 507.65 261.47
  Q 528.33 260.07 547.56 269.69
  Q 568.27 280.04 583.42 296.88
  C 583.63 297.11 583.93 297.23 584.24 297.19
  Q 614.50 293.65 639.94 307.56
  Q 654.70 315.64 664.82 329.63
  Q 670.72 337.80 674.36 347.14
  Q 681.27 364.89 679.70 384.89
  C 679.65 385.50 679.93 386.10 680.43 386.46
  Q 687.71 391.60 694.02 396.97
  Q 710.74 411.19 721.23 430.48
  Q 731.38 449.14 730.33 469.75
  Q 729.80 480.07 726.45 489.30
  Q 720.66 505.28 707.56 516.56
  Q 700.11 522.98 690.11 528.28
  Q 673.66 536.99 655.43 542.09
  Q 653.76 542.56 655.46 542.98
  L 680.09 549.21
  C 680.86 549.41 681.55 549.92 682.01 550.64
  L 750.76 658.60
  Q 751.37 659.56 750.25 659.35
  Q 721.99 653.99 694.08 649.59
  Q 658.15 643.92 624.00 644.00
  Q 603.68 644.05 582.00 648.46
  Z"
/>
<path fill="#225f7d" d="
  M 573.25 552.79
  Q 562.71 562.29 553.71 573.25
  L 549.21 578.25
  L 544.71 582.50
  L 541.46 584.50
  Q 536.93 586.81 532.00 588.04
  L 527.54 587.50
  Q 524.07 585.40 521.79 582.00
  Q 521.12 579.99 521.31 579.06
  Q 521.75 576.91 521.75 573.25
  Q 521.75 504.25 521.58 435.25
  Q 521.56 426.90 522.56 421.81
  Q 524.29 413.07 532.31 407.56
  Q 541.28 401.41 553.25 401.40
  Q 558.63 401.40 565.30 401.83
  C 565.69 401.86 566.05 401.63 566.19 401.27
  Q 574.17 380.85 586.24 363.80
  Q 590.23 358.16 593.81 356.06
  Q 597.74 353.76 601.69 354.81
  Q 607.08 356.25 608.62 360.84
  Q 609.78 364.25 608.06 369.05
  Q 606.01 374.79 601.94 380.19
  Q 592.43 392.79 588.99 408.61
  Q 587.40 415.87 588.13 419.45
  Q 589.62 426.79 599.25 426.00
  Q 612.98 424.87 622.89 413.89
  Q 636.47 398.84 637.89 379.21
  Q 638.49 370.97 636.63 364.43
  Q 634.47 356.83 629.44 351.06
  Q 615.38 334.94 593.02 337.46
  Q 581.03 338.80 568.95 343.21
  C 568.52 343.36 568.05 343.11 567.94 342.66
  Q 561.45 315.59 538.11 303.09
  Q 528.72 298.06 519.25 296.83
  Q 505.51 295.06 492.44 300.69
  Q 463.85 313.00 454.58 342.96
  C 454.50 343.22 454.22 343.36 453.97 343.26
  Q 439.13 337.77 427.00 337.00
  Q 409.88 335.92 397.73 346.64
  Q 390.23 353.25 387.09 361.99
  Q 383.87 370.97 385.25 381.25
  Q 387.73 399.78 399.60 413.41
  Q 409.94 425.27 425.00 426.00
  Q 432.39 426.36 434.46 420.87
  Q 435.66 417.68 434.55 411.59
  Q 431.59 395.18 421.63 381.61
  Q 418.08 376.78 415.35 371.45
  Q 413.72 368.28 413.50 365.25
  Q 412.98 358.12 419.58 355.45
  Q 424.61 353.41 428.69 356.06
  Q 431.68 358.01 434.34 361.32
  Q 435.25 362.46 438.79 367.56
  Q 449.56 383.03 456.52 401.43
  C 456.67 401.83 457.08 402.07 457.50 402.00
  Q 461.99 401.26 466.50 401.29
  Q 471.51 401.31 475.49 401.88
  Q 481.97 402.81 487.65 405.87
  Q 493.73 409.15 497.15 414.01
  Q 501.50 420.22 501.50 428.25
  Q 501.50 490.88 501.65 553.50
  Q 501.69 568.72 501.00 580.25
  Q 500.86 582.66 499.71 585.75
  Q 497.90 588.54 495.04 589.38
  Q 492.78 590.05 489.50 589.15
  Q 483.24 587.42 478.48 582.77
  Q 474.35 578.75 470.66 574.33
  Q 463.46 565.70 455.49 557.76
  Q 438.56 540.91 415.66 533.90
  Q 401.40 529.53 386.74 526.82
  Q 376.80 524.98 366.99 522.54
  Q 350.77 518.51 336.80 509.85
  Q 326.86 503.68 321.43 497.20
  Q 313.07 487.22 311.50 474.25
  Q 309.51 457.85 316.06 443.06
  Q 320.59 432.85 328.25 423.97
  Q 343.53 406.25 364.06 395.26
  C 364.34 395.11 364.48 394.78 364.39 394.46
  Q 358.08 372.39 366.81 351.56
  Q 374.17 334.01 391.31 324.31
  Q 415.85 310.42 443.52 317.25
  C 444.07 317.39 444.64 317.23 445.04 316.83
  Q 459.85 302.05 477.81 291.06
  Q 487.55 285.11 500.52 282.36
  Q 509.59 280.45 518.60 281.31
  Q 526.81 282.08 535.95 285.65
  Q 549.91 291.11 561.43 301.09
  Q 570.26 308.74 577.63 316.59
  C 578.20 317.20 579.07 317.46 579.89 317.26
  Q 600.35 312.20 619.10 318.32
  Q 637.50 324.33 648.73 338.94
  Q 654.81 346.85 658.02 356.54
  Q 663.95 374.41 658.96 393.67
  C 658.85 394.08 659.03 394.51 659.39 394.73
  Q 676.48 405.00 690.01 418.74
  Q 700.73 429.62 706.62 443.34
  Q 710.73 452.90 711.33 462.65
  Q 713.17 492.55 685.88 508.92
  Q 668.93 519.08 651.75 523.00
  Q 623.59 529.42 615.90 531.29
  Q 592.05 537.10 573.25 552.79
  Z
  M 344.44 486.31
  Q 362.95 500.85 386.24 502.96
  C 386.50 502.98 386.72 502.75 386.69 502.49
  Q 384.30 481.17 369.54 465.71
  Q 367.58 463.67 365.68 461.56
  Q 359.24 454.42 363.52 448.09
  Q 366.44 443.77 371.32 442.90
  Q 376.68 441.94 381.19 446.31
  Q 407.74 472.09 414.97 508.72
  C 415.03 509.03 415.26 509.28 415.56 509.37
  Q 450.24 519.76 475.58 544.71
  Q 476.23 545.35 476.24 544.44
  Q 476.40 533.25 476.22 522.50
  Q 476.10 515.47 474.75 510.00
  Q 472.55 501.10 463.94 497.06
  Q 456.86 493.75 448.65 487.82
  Q 434.32 477.48 427.68 461.06
  Q 426.02 456.96 423.15 453.75
  Q 421.32 451.70 418.05 450.37
  Q 413.27 448.43 408.42 446.66
  Q 401.92 444.29 398.97 442.62
  Q 391.24 438.25 385.28 431.48
  Q 379.57 425.00 375.16 417.51
  C 374.91 417.09 374.37 416.94 373.94 417.16
  Q 360.55 424.04 349.54 434.79
  Q 343.34 440.83 339.16 448.42
  Q 336.08 454.01 334.92 460.14
  Q 333.67 466.75 335.10 472.35
  Q 337.21 480.63 344.44 486.31
  Z
  M 650.94 442.56
  Q 658.29 443.10 660.56 450.56
  Q 661.90 454.94 659.43 458.64
  Q 657.75 461.18 654.81 464.06
  Q 638.97 479.64 636.25 502.34
  C 636.20 502.70 636.51 503.00 636.87 502.95
  Q 649.48 501.12 661.53 496.00
  Q 672.02 491.54 679.94 484.44
  Q 690.27 475.17 687.62 460.93
  Q 686.38 454.23 683.31 448.69
  Q 677.83 438.77 668.97 431.01
  Q 659.70 422.90 648.47 417.11
  C 647.98 416.85 647.37 417.03 647.10 417.51
  Q 642.91 424.84 637.20 431.47
  Q 629.58 440.32 618.73 444.71
  Q 611.25 447.74 607.00 449.00
  Q 603.07 450.16 600.30 452.58
  Q 598.36 454.26 596.08 458.60
  Q 593.87 462.79 591.66 466.98
  Q 588.77 472.45 586.79 475.13
  Q 583.59 479.44 579.54 483.04
  Q 571.25 490.39 561.34 495.37
  Q 560.05 496.02 556.19 498.44
  Q 551.18 501.57 549.06 506.56
  Q 547.57 510.08 547.16 514.63
  Q 547.07 515.55 546.84 522.86
  Q 546.49 533.93 546.98 544.99
  Q 547.00 545.50 547.35 545.15
  Q 572.95 519.67 607.71 509.57
  C 608.00 509.49 608.23 509.25 608.29 508.94
  Q 614.35 478.47 634.11 454.60
  Q 638.24 449.61 643.17 445.41
  Q 646.87 442.26 650.94 442.56
  Z
  M 454.94 463.31
  Q 463.98 471.36 475.27 477.37
  C 475.54 477.51 475.87 477.33 475.89 477.03
  Q 476.46 470.37 477.17 465.02
  Q 479.56 446.95 478.28 428.77
  Q 478.07 425.82 475.69 424.81
  Q 471.95 423.24 467.75 423.35
  Q 464.06 423.45 460.10 425.22
  Q 447.11 431.03 446.04 445.29
  Q 445.66 450.36 447.75 454.38
  Q 450.19 459.09 454.94 463.31
  Z
  M 568.14 428.85
  Q 560.34 421.97 549.94 423.94
  Q 547.51 424.40 546.07 425.51
  Q 544.79 426.51 544.45 428.99
  Q 543.40 436.80 544.00 446.00
  Q 545.20 464.33 547.00 477.44
  C 547.03 477.68 547.29 477.81 547.49 477.69
  Q 559.47 470.76 569.66 461.42
  Q 576.89 454.78 576.44 445.56
  Q 575.96 435.75 568.14 428.85
  Z"
/>
<path fill="#fefefe" d="
  M 521.79 582.00
  Q 513.86 590.54 509.96 601.50
  Q 509.44 602.02 509.06 601.19
  Q 505.48 593.37 499.71 585.75
  Q 500.86 582.66 501.00 580.25
  Q 501.69 568.72 501.65 553.50
  Q 501.50 490.88 501.50 428.25
  Q 501.50 420.22 497.15 414.01
  Q 493.73 409.15 487.65 405.87
  Q 481.97 402.81 475.49 401.88
  Q 471.51 401.31 466.50 401.29
  Q 461.99 401.26 457.50 402.00
  C 457.08 402.07 456.67 401.83 456.52 401.43
  Q 449.56 383.03 438.79 367.56
  Q 435.25 362.46 434.34 361.32
  Q 431.68 358.01 428.69 356.06
  Q 424.61 353.41 419.58 355.45
  Q 412.98 358.12 413.50 365.25
  Q 413.72 368.28 415.35 371.45
  Q 418.08 376.78 421.63 381.61
  Q 431.59 395.18 434.55 411.59
  Q 435.66 417.68 434.46 420.87
  Q 432.39 426.36 425.00 426.00
  Q 409.94 425.27 399.60 413.41
  Q 387.73 399.78 385.25 381.25
  Q 383.87 370.97 387.09 361.99
  Q 390.23 353.25 397.73 346.64
  Q 409.88 335.92 427.00 337.00
  Q 439.13 337.77 453.97 343.26
  C 454.22 343.36 454.50 343.22 454.58 342.96
  Q 463.85 313.00 492.44 300.69
  Q 505.51 295.06 519.25 296.83
  Q 528.72 298.06 538.11 303.09
  Q 561.45 315.59 567.94 342.66
  C 568.05 343.11 568.52 343.36 568.95 343.21
  Q 581.03 338.80 593.02 337.46
  Q 615.38 334.94 629.44 351.06
  Q 634.47 356.83 636.63 364.43
  Q 638.49 370.97 637.89 379.21
  Q 636.47 398.84 622.89 413.89
  Q 612.98 424.87 599.25 426.00
  Q 589.62 426.79 588.13 419.45
  Q 587.40 415.87 588.99 408.61
  Q 592.43 392.79 601.94 380.19
  Q 606.01 374.79 608.06 369.05
  Q 609.78 364.25 608.62 360.84
  Q 607.08 356.25 601.69 354.81
  Q 597.74 353.76 593.81 356.06
  Q 590.23 358.16 586.24 363.80
  Q 574.17 380.85 566.19 401.27
  C 566.05 401.63 565.69 401.86 565.30 401.83
  Q 558.63 401.40 553.25 401.40
  Q 541.28 401.41 532.31 407.56
  Q 524.29 413.07 522.56 421.81
  Q 521.56 426.90 521.58 435.25
  Q 521.75 504.25 521.75 573.25
  Q 521.75 576.91 521.31 579.06
  Q 521.12 579.99 521.79 582.00
  Z
  M 482.04 366.97
  Q 490.14 374.14 499.31 379.87
  Q 499.38 379.91 501.51 381.34
  Q 504.71 383.50 508.39 383.84
  Q 511.51 384.13 516.18 382.12
  Q 529.62 376.34 539.06 370.06
  Q 545.77 365.60 546.49 357.73
  Q 546.87 353.47 546.23 350.28
  Q 545.44 346.33 542.44 343.56
  Q 533.57 335.37 521.95 327.80
  Q 517.47 324.88 514.40 324.59
  Q 510.28 324.20 505.94 326.19
  Q 494.04 331.62 484.93 337.94
  Q 480.25 341.18 478.57 344.09
  Q 476.36 347.92 476.25 353.00
  Q 476.07 361.68 482.04 366.97
  Z"
/>
<path fill="#225f7d" d="
  M 482.04 366.97
  Q 476.07 361.68 476.25 353.00
  Q 476.36 347.92 478.57 344.09
  Q 480.25 341.18 484.93 337.94
  Q 494.04 331.62 505.94 326.19
  Q 510.28 324.20 514.40 324.59
  Q 517.47 324.88 521.95 327.80
  Q 533.57 335.37 542.44 343.56
  Q 545.44 346.33 546.23 350.28
  Q 546.87 353.47 546.49 357.73
  Q 545.77 365.60 539.06 370.06
  Q 529.62 376.34 516.18 382.12
  Q 511.51 384.13 508.39 383.84
  Q 504.71 383.50 501.51 381.34
  Q 499.38 379.91 499.31 379.87
  Q 490.14 374.14 482.04 366.97
  Z
  M 499.32 355.75
  Q 504.22 358.88 509.36 361.71
  Q 511.08 362.66 512.93 362.01
  Q 518.88 359.94 524.83 356.55
  Q 526.87 355.39 525.03 353.94
  Q 520.56 350.41 514.14 347.08
  Q 512.74 346.35 511.23 346.81
  Q 506.26 348.29 500.89 351.05
  Q 498.63 352.22 498.48 352.32
  Q 496.29 353.82 499.32 355.75
  Z"
/>
<path fill="#fefefe" d="
  M 499.32 355.75
  Q 496.29 353.82 498.48 352.32
  Q 498.63 352.22 500.89 351.05
  Q 506.26 348.29 511.23 346.81
  Q 512.74 346.35 514.14 347.08
  Q 520.56 350.41 525.03 353.94
  Q 526.87 355.39 524.83 356.55
  Q 518.88 359.94 512.93 362.01
  Q 511.08 362.66 509.36 361.71
  Q 504.22 358.88 499.32 355.75
  Z"
/>
<path fill="#fefefe" d="
  M 344.44 486.31
  Q 337.21 480.63 335.10 472.35
  Q 333.67 466.75 334.92 460.14
  Q 336.08 454.01 339.16 448.42
  Q 343.34 440.83 349.54 434.79
  Q 360.55 424.04 373.94 417.16
  C 374.37 416.94 374.91 417.09 375.16 417.51
  Q 379.57 425.00 385.28 431.48
  Q 391.24 438.25 398.97 442.62
  Q 401.92 444.29 408.42 446.66
  Q 413.27 448.43 418.05 450.37
  Q 421.32 451.70 423.15 453.75
  Q 426.02 456.96 427.68 461.06
  Q 434.32 477.48 448.65 487.82
  Q 456.86 493.75 463.94 497.06
  Q 472.55 501.10 474.75 510.00
  Q 476.10 515.47 476.22 522.50
  Q 476.40 533.25 476.24 544.44
  Q 476.23 545.35 475.58 544.71
  Q 450.24 519.76 415.56 509.37
  C 415.26 509.28 415.03 509.03 414.97 508.72
  Q 407.74 472.09 381.19 446.31
  Q 376.68 441.94 371.32 442.90
  Q 366.44 443.77 363.52 448.09
  Q 359.24 454.42 365.68 461.56
  Q 367.58 463.67 369.54 465.71
  Q 384.30 481.17 386.69 502.49
  C 386.72 502.75 386.50 502.98 386.24 502.96
  Q 362.95 500.85 344.44 486.31
  Z"
/>
<path fill="#fefefe" d="
  M 650.94 442.56
  Q 646.87 442.26 643.17 445.41
  Q 638.24 449.61 634.11 454.60
  Q 614.35 478.47 608.29 508.94
  C 608.23 509.25 608.00 509.49 607.71 509.57
  Q 572.95 519.67 547.35 545.15
  Q 547.00 545.50 546.98 544.99
  Q 546.49 533.93 546.84 522.86
  Q 547.07 515.55 547.16 514.63
  Q 547.57 510.08 549.06 506.56
  Q 551.18 501.57 556.19 498.44
  Q 560.05 496.02 561.34 495.37
  Q 571.25 490.39 579.54 483.04
  Q 583.59 479.44 586.79 475.13
  Q 588.77 472.45 591.66 466.98
  Q 593.87 462.79 596.08 458.60
  Q 598.36 454.26 600.30 452.58
  Q 603.07 450.16 607.00 449.00
  Q 611.25 447.74 618.73 444.71
  Q 629.58 440.32 637.20 431.47
  Q 642.91 424.84 647.10 417.51
  C 647.37 417.03 647.98 416.85 648.47 417.11
  Q 659.70 422.90 668.97 431.01
  Q 677.83 438.77 683.31 448.69
  Q 686.38 454.23 687.62 460.93
  Q 690.27 475.17 679.94 484.44
  Q 672.02 491.54 661.53 496.00
  Q 649.48 501.12 636.87 502.95
  C 636.51 503.00 636.20 502.70 636.25 502.34
  Q 638.97 479.64 654.81 464.06
  Q 657.75 461.18 659.43 458.64
  Q 661.90 454.94 660.56 450.56
  Q 658.29 443.10 650.94 442.56
  Z"
/>
<path fill="#fefefe" d="
  M 454.94 463.31
  Q 450.19 459.09 447.75 454.38
  Q 445.66 450.36 446.04 445.29
  Q 447.11 431.03 460.10 425.22
  Q 464.06 423.45 467.75 423.35
  Q 471.95 423.24 475.69 424.81
  Q 478.07 425.82 478.28 428.77
  Q 479.56 446.95 477.17 465.02
  Q 476.46 470.37 475.89 477.03
  C 475.87 477.33 475.54 477.51 475.27 477.37
  Q 463.98 471.36 454.94 463.31
  Z"
/>
<path fill="#fefefe" d="
  M 568.14 428.85
  Q 575.96 435.75 576.44 445.56
  Q 576.89 454.78 569.66 461.42
  Q 559.47 470.76 547.49 477.69
  C 547.29 477.81 547.03 477.68 547.00 477.44
  Q 545.20 464.33 544.00 446.00
  Q 543.40 436.80 544.45 428.99
  Q 544.79 426.51 546.07 425.51
  Q 547.51 424.40 549.94 423.94
  Q 560.34 421.97 568.14 428.85
  Z"
/>
<path fill="#7dd2f7" d="
  M 573.25 552.79
  Q 574.05 557.41 575.44 558.81
  Q 578.98 562.40 579.25 568.25
  Q 579.85 581.21 579.44 589.19
  Q 578.24 612.47 578.25 621.50
  Q 578.27 632.03 581.04 643.44
  Q 581.23 644.24 581.05 645.03
  Q 580.54 647.24 582.00 648.46
  Q 569.14 651.52 557.00 656.71
  Q 557.23 655.05 557.01 653.41
  Q 556.59 650.28 556.58 650.17
  Q 555.37 630.69 556.00 617.75
  Q 556.73 602.75 557.09 587.75
  Q 557.19 583.32 555.48 579.26
  Q 555.31 578.84 555.22 579.27
  Q 555.18 579.45 555.14 579.27
  L 553.71 573.25
  Q 562.71 562.29 573.25 552.79
  Z"
/>
<path fill="#73c4ea" d="
  M 553.71 573.25
  L 555.14 579.27
  Q 555.18 579.45 555.22 579.27
  Q 555.31 578.84 555.48 579.26
  Q 557.19 583.32 557.09 587.75
  Q 556.73 602.75 556.00 617.75
  Q 555.37 630.69 556.58 650.17
  Q 556.59 650.28 557.01 653.41
  Q 557.23 655.05 557.00 656.71
  L 552.75 658.71
  Q 550.62 655.25 550.75 649.75
  Q 550.96 640.71 551.15 635.25
  Q 551.50 625.32 551.52 620.75
  Q 551.56 606.88 551.75 593.00
  Q 551.82 588.05 549.21 578.25
  L 553.71 573.25
  Z"
/>
<path fill="#6fbee4" d="
  M 549.21 578.25
  Q 551.82 588.05 551.75 593.00
  Q 551.56 606.88 551.52 620.75
  Q 551.50 625.32 551.15 635.25
  Q 550.96 640.71 550.75 649.75
  Q 550.62 655.25 552.75 658.71
  L 546.79 661.75
  Q 546.77 660.75 546.12 660.07
  C 545.88 659.83 545.76 659.53 545.77 659.25
  Q 546.56 639.00 545.90 618.75
  Q 545.52 606.88 545.69 595.00
  Q 545.77 588.71 544.71 582.50
  L 549.21 578.25
  Z"
/>
<path fill="#5197bc" d="
  M 521.79 582.00
  Q 524.07 585.40 527.54 587.50
  Q 527.20 588.83 526.86 590.16
  Q 526.50 591.50 526.53 592.87
  Q 526.92 610.70 526.04 628.50
  Q 525.71 635.15 525.75 651.50
  Q 525.78 665.02 527.44 675.44
  Q 527.19 675.89 527.75 676.04
  Q 519.12 684.97 512.27 695.34
  C 512.12 695.57 511.80 695.62 511.60 695.44
  Q 510.70 694.65 510.25 693.46
  Q 510.75 692.81 510.75 692.00
  Q 510.72 672.00 510.79 652.00
  Q 511.00 656.09 511.36 652.98
  Q 512.18 645.86 512.07 638.69
  Q 512.06 638.54 512.09 633.81
  Q 512.11 629.71 511.27 625.69
  Q 511.20 625.36 511.00 625.67
  L 510.79 626.00
  Q 511.18 613.72 509.96 601.50
  Q 513.86 590.54 521.79 582.00
  Z"
/>
<path fill="#6bb9df" d="
  M 544.71 582.50
  Q 545.77 588.71 545.69 595.00
  Q 545.52 606.88 545.90 618.75
  Q 546.56 639.00 545.77 659.25
  C 545.76 659.53 545.88 659.83 546.12 660.07
  Q 546.77 660.75 546.79 661.75
  Q 545.68 662.79 544.25 663.29
  Q 542.36 660.63 542.23 657.25
  Q 541.56 638.62 542.61 620.01
  Q 543.47 604.73 542.52 589.46
  Q 542.45 588.36 542.04 586.99
  Q 541.68 585.76 541.46 584.50
  L 544.71 582.50
  Z"
/>
<path fill="#64afd5" d="
  M 541.46 584.50
  Q 541.68 585.76 542.04 586.99
  Q 542.45 588.36 542.52 589.46
  Q 543.47 604.73 542.61 620.01
  Q 541.56 638.62 542.23 657.25
  Q 542.36 660.63 544.25 663.29
  L 533.50 671.04
  Q 532.55 671.22 532.69 670.69
  Q 531.31 668.59 531.25 667.00
  Q 530.19 637.14 531.95 607.32
  Q 532.24 602.43 532.14 597.68
  Q 532.04 592.86 532.00 588.04
  Q 536.93 586.81 541.46 584.50
  Z"
/>
<path fill="#5ca5ca" d="
  M 527.54 587.50
  L 532.00 588.04
  Q 532.04 592.86 532.14 597.68
  Q 532.24 602.43 531.95 607.32
  Q 530.19 637.14 531.25 667.00
  Q 531.31 668.59 532.69 670.69
  Q 532.55 671.22 533.50 671.04
  L 527.75 676.04
  Q 527.19 675.89 527.44 675.44
  Q 525.78 665.02 525.75 651.50
  Q 525.71 635.15 526.04 628.50
  Q 526.92 610.70 526.53 592.87
  Q 526.50 591.50 526.86 590.16
  Q 527.20 588.83 527.54 587.50
  Z"
/>
<path fill="#5197bc" d="
  M 510.79 652.00
  L 510.79 626.00
  L 511.00 625.67
  Q 511.20 625.36 511.27 625.69
  Q 512.11 629.71 512.09 633.81
  Q 512.06 638.54 512.07 638.69
  Q 512.18 645.86 511.36 652.98
  Q 511.00 656.09 510.79 652.00
  Z"
/>
<path fill="#22607e" d="
  M 291.21 657.50
  Q 283.06 692.38 276.05 727.25
  C 276.00 727.51 276.20 727.75 276.46 727.75
  L 489.94 727.75
  C 490.45 727.75 490.94 728.00 491.27 728.43
  L 496.43 735.12
  C 496.63 735.37 496.93 735.51 497.25 735.51
  L 524.27 735.48
  Q 525.84 735.48 526.98 733.99
  L 531.27 728.39
  C 531.58 727.99 532.10 727.75 532.69 727.75
  L 761.27 727.75
  C 761.78 727.75 762.11 727.21 761.87 726.76
  Q 758.73 720.86 755.73 714.76
  Q 752.33 707.82 750.78 702.26
  Q 748.22 693.06 747.58 683.60
  Q 747.52 682.63 747.99 683.49
  L 767.00 717.54
  L 788.95 756.75
  C 789.06 756.95 788.92 757.19 788.69 757.19
  L 758.25 757.29
  L 698.25 757.29
  Q 618.25 757.22 538.25 757.18
  Q 536.61 757.18 535.00 757.54
  Q 534.41 757.57 533.91 757.34
  Q 533.50 757.16 533.16 756.60
  Q 531.76 754.24 530.25 751.96
  L 527.96 748.25
  L 524.83 742.86
  C 524.68 742.60 524.39 742.43 524.06 742.41
  Q 511.52 741.62 498.26 742.29
  C 497.81 742.31 497.41 742.55 497.20 742.92
  L 494.29 748.00
  L 492.79 750.50
  L 488.96 757.25
  L 325.50 757.29
  L 287.50 757.29
  L 244.79 757.25
  C 244.43 757.25 244.18 756.88 244.32 756.54
  L 260.71 716.50
  L 283.50 658.79
  Q 287.22 657.42 291.21 657.50
  Z"
/>
<path fill="#f5f4f4" d="
  M 260.71 716.50
  L 244.32 756.54
  C 244.18 756.88 244.43 757.25 244.79 757.25
  L 287.50 757.29
  L 279.02 758.50
  Q 278.16 758.62 278.96 758.90
  Q 284.88 760.96 290.86 762.12
  Q 301.39 764.16 302.91 764.51
  Q 324.19 769.41 350.75 772.00
  Q 415.06 778.28 467.50 779.25
  Q 477.02 779.43 482.83 779.49
  Q 491.07 779.57 498.17 779.71
  Q 516.07 780.04 543.44 779.31
  Q 596.22 777.91 613.00 777.00
  Q 620.64 776.59 626.16 776.40
  Q 635.12 776.10 639.33 775.80
  Q 675.38 773.26 711.27 769.10
  Q 713.82 768.80 717.16 768.05
  Q 720.09 767.38 723.05 766.89
  Q 728.83 765.93 731.86 765.17
  Q 735.99 764.14 740.12 763.08
  Q 743.85 762.11 748.48 761.44
  Q 753.64 760.68 758.76 759.60
  C 759.09 759.53 759.38 759.35 759.55 759.09
  Q 760.74 757.32 758.25 757.29
  L 788.69 757.19
  C 788.92 757.19 789.06 756.95 788.95 756.75
  L 767.00 717.54
  Q 767.73 717.95 768.06 717.31
  Q 770.05 716.24 772.22 716.45
  Q 775.22 716.74 775.32 716.74
  Q 781.00 716.77 785.75 717.75
  Q 795.65 719.80 806.57 723.57
  Q 807.74 723.98 810.17 725.41
  Q 811.95 726.46 814.01 726.94
  Q 817.17 727.68 819.95 729.34
  Q 823.03 731.19 825.95 733.28
  Q 831.08 736.97 831.64 737.61
  Q 834.66 741.01 831.94 746.19
  Q 831.09 747.80 826.84 751.78
  Q 823.96 754.48 820.63 755.89
  Q 815.15 758.21 809.32 759.46
  Q 806.58 760.05 803.96 761.36
  Q 797.99 764.36 793.50 764.50
  Q 790.69 764.59 788.72 765.18
  Q 785.81 766.04 784.63 766.17
  Q 780.01 766.69 775.72 768.42
  Q 772.60 769.68 769.92 770.18
  Q 767.41 770.64 764.94 771.30
  Q 762.50 771.95 759.95 772.18
  Q 754.66 772.66 749.50 774.00
  Q 747.33 774.56 739.77 775.29
  Q 738.79 775.38 735.38 776.31
  Q 733.44 776.84 730.81 776.94
  Q 715.03 777.52 695.00 781.25
  Q 692.49 781.72 688.06 781.19
  Q 684.66 780.78 671.56 782.81
  Q 669.57 783.12 664.84 782.64
  Q 661.37 782.29 658.15 782.52
  Q 651.83 782.96 645.50 782.95
  Q 641.93 782.95 638.45 783.53
  Q 635.34 784.05 631.47 784.30
  Q 627.94 784.53 624.50 785.50
  Q 622.25 786.13 616.33 786.09
  Q 612.07 786.06 608.21 786.59
  Q 597.69 788.01 593.00 787.50
  Q 587.46 786.89 574.75 787.25
  Q 560.50 787.65 546.25 787.96
  Q 529.18 788.34 512.13 787.66
  Q 509.62 787.56 504.92 788.10
  Q 500.73 788.58 496.49 788.06
  Q 494.81 787.85 493.41 788.72
  C 493.12 788.90 492.80 788.98 492.50 788.95
  Q 473.34 787.13 469.25 787.25
  Q 454.31 787.68 446.50 787.00
  Q 441.41 786.56 437.23 786.85
  Q 430.30 787.34 430.24 787.34
  Q 420.10 787.53 409.98 786.85
  Q 409.92 786.85 407.02 786.85
  Q 404.33 786.85 401.60 785.56
  Q 400.79 785.18 399.90 785.11
  Q 389.10 784.26 379.75 783.00
  Q 378.20 782.79 377.39 782.30
  Q 376.89 781.99 376.50 781.95
  Q 363.23 780.66 349.90 780.71
  Q 347.28 780.73 343.19 780.00
  Q 340.48 779.51 337.73 779.46
  Q 334.50 779.39 332.30 779.09
  Q 326.65 778.35 320.95 778.42
  Q 318.41 778.45 315.64 777.83
  Q 313.01 777.23 310.31 776.96
  Q 308.31 776.76 306.42 776.15
  Q 303.92 775.34 302.60 775.14
  Q 283.90 772.34 273.00 771.25
  Q 269.80 770.93 267.35 769.72
  Q 264.62 768.38 263.25 768.08
  Q 253.80 766.04 244.25 764.50
  Q 243.36 764.36 239.75 763.00
  Q 233.12 760.51 226.35 758.41
  Q 225.32 758.09 223.60 758.21
  Q 222.01 758.32 220.75 757.75
  Q 212.21 753.93 204.81 748.20
  Q 201.60 745.72 202.25 741.75
  Q 202.43 740.66 204.01 737.40
  Q 205.08 735.22 206.90 733.85
  Q 211.23 730.61 216.27 728.55
  Q 232.56 721.92 240.69 719.44
  Q 242.87 718.77 247.30 718.28
  Q 249.11 718.08 253.06 717.05
  Q 256.77 716.08 260.71 716.50
  Z"
/>
<path fill="#b0b1b0" d="
  M 527.96 748.25
  Q 526.16 749.42 524.00 749.45
  Q 515.95 749.58 507.91 749.19
  Q 506.11 749.10 501.13 748.46
  Q 497.73 748.01 494.29 748.00
  L 497.20 742.92
  C 497.41 742.55 497.81 742.31 498.26 742.29
  Q 511.52 741.62 524.06 742.41
  C 524.39 742.43 524.68 742.60 524.83 742.86
  L 527.96 748.25
  Z"
/>
<path fill="#bbbcbb" d="
  M 527.96 748.25
  L 530.25 751.96
  Q 528.11 752.71 525.00 752.75
  Q 509.55 752.93 496.25 751.25
  Q 493.67 750.92 492.79 750.50
  L 494.29 748.00
  Q 497.73 748.01 501.13 748.46
  Q 506.11 749.10 507.91 749.19
  Q 515.95 749.58 524.00 749.45
  Q 526.16 749.42 527.96 748.25
  Z"
/>
<path fill="#cbcbcb" d="
  M 492.79 750.50
  Q 493.67 750.92 496.25 751.25
  Q 509.55 752.93 525.00 752.75
  Q 528.11 752.71 530.25 751.96
  Q 531.76 754.24 533.16 756.60
  Q 533.50 757.16 533.91 757.34
  Q 534.41 757.57 535.00 757.54
  Q 533.52 760.08 530.69 760.07
  Q 528.87 760.06 528.80 760.07
  Q 513.07 761.16 492.75 759.75
  Q 489.68 759.54 488.96 757.25
  L 492.79 750.50
  Z"
/>
<path fill="#ececec" d="
  M 287.50 757.29
  L 325.50 757.29
  L 324.79 757.54
  Q 324.35 757.69 324.81 757.70
  Q 328.03 757.80 331.25 757.90
  Q 334.14 757.98 332.20 758.37
  Q 331.82 758.44 332.18 758.57
  Q 342.79 762.26 348.25 762.75
  Q 354.83 763.34 371.94 765.56
  Q 401.11 769.35 449.00 771.94
  Q 460.93 772.58 472.88 772.56
  C 473.07 772.56 473.27 772.62 473.45 772.72
  Q 473.58 772.80 473.71 772.87
  Q 473.98 773.00 474.31 773.01
  Q 484.77 773.37 495.23 773.86
  Q 495.30 773.86 501.26 774.33
  Q 506.30 774.72 512.50 774.25
  Q 521.50 773.57 541.91 773.33
  Q 549.12 773.24 558.57 772.73
  Q 566.90 772.28 575.24 772.11
  Q 587.34 771.86 595.24 771.40
  Q 609.50 770.57 623.76 769.93
  Q 634.93 769.42 643.69 768.38
  Q 672.86 764.89 701.70 759.18
  Q 703.33 758.86 701.67 758.72
  Q 699.83 758.57 698.25 757.29
  L 758.25 757.29
  Q 760.74 757.32 759.55 759.09
  C 759.38 759.35 759.09 759.53 758.76 759.60
  Q 753.64 760.68 748.48 761.44
  Q 743.85 762.11 740.12 763.08
  Q 735.99 764.14 731.86 765.17
  Q 728.83 765.93 723.05 766.89
  Q 720.09 767.38 717.16 768.05
  Q 713.82 768.80 711.27 769.10
  Q 675.38 773.26 639.33 775.80
  Q 635.12 776.10 626.16 776.40
  Q 620.64 776.59 613.00 777.00
  Q 596.22 777.91 543.44 779.31
  Q 516.07 780.04 498.17 779.71
  Q 491.07 779.57 482.83 779.49
  Q 477.02 779.43 467.50 779.25
  Q 415.06 778.28 350.75 772.00
  Q 324.19 769.41 302.91 764.51
  Q 301.39 764.16 290.86 762.12
  Q 284.88 760.96 278.96 758.90
  Q 278.16 758.62 279.02 758.50
  L 287.50 757.29
  Z"
/>
<path fill="#e2e2e2" d="
  M 325.50 757.29
  L 488.96 757.25
  Q 489.68 759.54 492.75 759.75
  Q 513.07 761.16 528.80 760.07
  Q 528.87 760.06 530.69 760.07
  Q 533.52 760.08 535.00 757.54
  Q 536.61 757.18 538.25 757.18
  Q 618.25 757.22 698.25 757.29
  Q 699.83 758.57 701.67 758.72
  Q 703.33 758.86 701.70 759.18
  Q 672.86 764.89 643.69 768.38
  Q 634.93 769.42 623.76 769.93
  Q 609.50 770.57 595.24 771.40
  Q 587.34 771.86 575.24 772.11
  Q 566.90 772.28 558.57 772.73
  Q 549.12 773.24 541.91 773.33
  Q 521.50 773.57 512.50 774.25
  Q 506.30 774.72 501.26 774.33
  Q 495.30 773.86 495.23 773.86
  Q 484.77 773.37 474.31 773.01
  Q 473.98 773.00 473.71 772.87
  Q 473.58 772.80 473.45 772.72
  C 473.27 772.62 473.07 772.56 472.88 772.56
  Q 460.93 772.58 449.00 771.94
  Q 401.11 769.35 371.94 765.56
  Q 354.83 763.34 348.25 762.75
  Q 342.79 762.26 332.18 758.57
  Q 331.82 758.44 332.20 758.37
  Q 334.14 757.98 331.25 757.90
  Q 328.03 757.80 324.81 757.70
  Q 324.35 757.69 324.79 757.54
  L 325.50 757.29
  Z"
/>
</svg>
