<svg version="1.2" xmlns="http://www.w3.org/2000/svg" viewBox="0 0 1024 1024" width="1024" height="1024"><style>.a{fill:none;stroke:#90afbe;stroke-width:2}.b{fill:none;stroke:#faf9f9;stroke-width:2}.c{fill:none;stroke:#c3ecfe;stroke-width:2}.d{fill:none;stroke:#a8cadd;stroke-width:2}.e{fill:none;stroke:#add1e4;stroke-width:2}.f{fill:none;stroke:#b1d6e9;stroke-width:2}.g{fill:none;stroke:#b5dbee;stroke-width:2}.h{fill:none;stroke:#b7def1;stroke-width:2}.i{fill:none;stroke:#b9e1f4;stroke-width:2}.j{fill:none;stroke:#bee8fa;stroke-width:2}.k{fill:none;stroke:#83d7fb;stroke-width:2}.l{fill:none;stroke:#559dbe;stroke-width:2}.m{fill:none;stroke:#c3edff;stroke-width:2}.n{fill:none;stroke:#6db9de;stroke-width:2}.o{fill:none;stroke:#559ebf;stroke-width:2}.p{fill:none;stroke:#5099ba;stroke-width:2}.q{fill:none;stroke:#4b92b4;stroke-width:2}.r{fill:none;stroke:#498fb1;stroke-width:2}.s{fill:none;stroke:#478cae;stroke-width:2}.t{fill:none;stroke:#4387a9;stroke-width:2}.u{fill:none;stroke:#3f82a4;stroke-width:2}.v{fill:none;stroke:#3a7b9d;stroke-width:2}.w{fill:none;stroke:#8caab9;stroke-width:2}.x{fill:none;stroke:#87a6b5;stroke-width:2}.y{fill:none;stroke:#82a1b0;stroke-width:2}.z{fill:none;stroke:#7796a5;stroke-width:2}.A{fill:none;stroke:#6f8e9d;stroke-width:2}.B{fill:none;stroke:#698997;stroke-width:2}.C{fill:none;stroke:#579ec3;stroke-width:2}.D{fill:none;stroke:#5197bc;stroke-width:2}.E{fill:none;stroke:#a8cbdd;stroke-width:2}.F{fill:none;stroke:#78cbf1;stroke-width:2}.G{fill:none;stroke:#60aad0;stroke-width:2}.H{fill:none;stroke:#71c1e7;stroke-width:2}.I{fill:none;stroke:#6dbce2;stroke-width:2}.J{fill:none;stroke:#68b4da;stroke-width:2}.K{fill:none;stroke:#e7e7e7;stroke-width:2}.L{fill:none;stroke:#b6b7b6;stroke-width:2}.M{fill:none;stroke:#c3c4c3;stroke-width:2}.N{fill:none;stroke:#f1f0f0;stroke-width:2}.O{fill:none;stroke:#d7d7d7;stroke-width:2}.P{fill:#88dbff}.Q{fill:#225f7d}.R{fill:#fefefe}.S{fill:#7dd2f7}.T{fill:#73c4ea}.U{fill:#6fbee4}.V{fill:#5197bc}.W{fill:#6bb9df}.X{fill:#64afd5}.Y{fill:#5ca5ca}.Z{fill:#22607e}.a0{fill:#f5f4f4}.a1{fill:#b0b1b0}.a2{fill:#bbbcbb}.a3{fill:#cbcbcb}.a4{fill:#ececec}.a5{fill:#e2e2e2}</style><path class="a" d="m283.5 658.8l-22.8 57.7"/><path class="b" d="m260.7 716.5q-3.9-0.4-7.6 0.5-4 1.1-5.8 1.3-4.4 0.5-6.6 1.1-8.1 2.5-24.4 9.1-5.1 2.1-9.4 5.4-1.8 1.3-2.9 3.5-1.6 3.3-1.7 4.3-0.7 4 2.5 6.5 7.4 5.7 16 9.6 1.2 0.5 2.8 0.4 1.7-0.1 2.8 0.2 6.7 2.1 13.4 4.6 3.6 1.4 4.5 1.5 9.5 1.5 19 3.6 1.3 0.3 4.1 1.6 2.4 1.2 5.6 1.6 10.9 1 29.6 3.8 1.3 0.2 3.8 1 1.9 0.7 3.9 0.9 2.7 0.2 5.3 0.8 2.8 0.7 5.3 0.6 5.7-0.1 11.4 0.7 2.2 0.3 5.4 0.4 2.8 0 5.5 0.5 4.1 0.7 6.7 0.7 13.3 0 26.6 1.3 0.4 0 0.9 0.3 0.8 0.5 2.4 0.7 9.3 1.3 20.1 2.1 0.9 0.1 1.7 0.5 2.7 1.3 5.4 1.3 2.9 0 3 0 10.1 0.6 20.2 0.4 0.1 0 7-0.4 4.2-0.3 9.3 0.1 7.8 0.7 22.8 0.3 4-0.2 23.2 1.7 0.5 0 0.9-0.3 1.4-0.9 3.1-0.6 4.2 0.5 8.4 0 4.7-0.5 7.2-0.4 17.1 0.6 34.2 0.3 14.2-0.3 28.5-0.7 12.7-0.4 18.2 0.2 4.7 0.5 15.2-0.9 3.9-0.5 8.1-0.5 6 0 8.2-0.6 3.4-1 7-1.2 3.8-0.2 7-0.8 3.4-0.5 7-0.5 6.3 0 12.6-0.5 3.3-0.2 6.7 0.1 4.8 0.5 6.8 0.2 13.1-2 16.5-1.6 4.4 0.5 6.9 0.1 20-3.8 35.8-4.4 2.6-0.1 4.6-0.6 3.4-0.9 4.4-1 7.5-0.7 9.7-1.3 5.2-1.3 10.5-1.8 2.5-0.2 4.9-0.9 2.5-0.7 5-1.1 2.7-0.5 5.8-1.8 4.3-1.7 8.9-2.2 1.2-0.2 4.1-1 2-0.6 4.8-0.7 4.5-0.1 10.5-3.1 2.6-1.4 5.3-1.9 5.8-1.3 11.3-3.6 3.4-1.4 6.2-4.1 4.3-4 5.1-5.6 2.8-5.2-0.3-8.6-0.5-0.6-5.6-4.3-3-2.1-6-4-2.8-1.6-6-2.4-2-0.4-3.8-1.5-2.5-1.4-3.6-1.8-11-3.8-20.8-5.8-4.8-1-10.5-1.1-0.1 0-3.1-0.2-2.2-0.3-4.1 0.8-0.4 0.7-1.1 0.2"/><path class="a" d="m767 717.5l-19-34q-0.5-0.9-0.4 0.1 0.6 9.5 3.2 18.7 1.5 5.5 4.9 12.5 3 6.1 6.2 12c0.2 0.4-0.1 1-0.6 1h-228.6c-0.6 0-1.1 0.2-1.4 0.6l-4.3 5.6q-1.2 1.5-2.7 1.5h-27.1c-0.3 0-0.6-0.1-0.8-0.4l-5.1-6.7c-0.4-0.4-0.9-0.6-1.4-0.6h-213.4c-0.3 0-0.5-0.3-0.4-0.5q7-34.9 15.1-69.8"/><path class="c" d="m291.2 657.5q0.8-0.6 1.1-0.7 39.5-7.8 79.7-10.2 17.8-1.1 37.5 0.1 28.3 1.8 54 12.2 22.5 9.1 39.1 26.7 3.8 4 7.7 7.9"/><path class="d" d="m510.3 693.5q0.4 1.1 1.3 1.9c0.2 0.2 0.5 0.2 0.7-0.1q6.8-10.3 15.4-19.3"/><path class="e" d="m527.8 676l5.7-5"/><path class="f" d="m533.5 671l10.8-7.7"/><path class="g" d="m544.3 663.3q1.4-0.5 2.5-1.5"/><path class="h" d="m546.8 661.8l6-3.1"/><path class="i" d="m552.8 658.7l4.2-2"/><path class="j" d="m557 656.7q12.1-5.2 25-8.2"/><path class="c" d="m582 648.5q21.7-4.5 42-4.5 34.2-0.1 70.1 5.6 27.9 4.4 56.2 9.8 1.1 0.2 0.5-0.8l-68.8-108c-0.5-0.7-1.1-1.2-1.9-1.4l-24.6-6.2q-1.7-0.4-0.1-0.9 18.3-5.1 34.7-13.8 10-5.3 17.5-11.7 13.1-11.3 18.9-27.3 3.3-9.2 3.8-19.6 1.1-20.6-9.1-39.2-10.5-19.3-27.2-33.5-6.3-5.4-13.6-10.5c-0.5-0.4-0.8-1-0.7-1.6q1.6-20-5.3-37.8-3.7-9.3-9.6-17.5-10.1-14-24.9-22-25.4-14-55.7-10.4c-0.3 0-0.6-0.1-0.8-0.3q-15.1-16.9-35.8-27.2-19.3-9.6-40-8.2-9.3 0.6-19.5 4.1-22.7 7.7-40.5 24.5-3.8 3.5-7.5 6.7c-0.3 0.2-0.7 0.4-1.1 0.3q-25.9-2.5-48.5 7.5-9.5 4.2-17.2 10.1-9 6.9-15 15.6-16.4 23.8-14.7 54.5c0 1-0.4 1.8-1.2 2.3q-23.5 15-38.5 39.7-14 22.9-11.2 48.2 2.2 19 14.2 34.1 5.8 7.3 14.4 13.7 12.5 9.4 27.5 14.6 1.7 0.6-0.1 0.8l-30.7 4.1c-0.4 0.1-0.8 0.3-1 0.7l-53.6 118.5q-0.5 1.1 0.6 0.9 8.6-1.5 17.5-3.7 1.3-0.3 2 0.1"/><path class="k" d="m582 648.5q-1.5-1.3-1-3.5 0.2-0.8 0-1.6-2.7-11.4-2.8-21.9 0-9 1.2-32.3 0.4-8-0.2-21-0.2-5.8-3.8-9.4-1.4-1.4-2.2-6"/><path class="l" d="m573.3 552.8q18.8-15.7 42.6-21.5 7.7-1.9 35.9-8.3 17.1-3.9 34.1-14.1 27.3-16.4 25.4-46.2-0.6-9.8-4.7-19.4-5.9-13.7-16.6-24.6-13.5-13.7-30.6-24c-0.4-0.2-0.5-0.6-0.4-1q5-19.3-1-37.2-3.2-9.6-9.3-17.6-11.2-14.6-29.6-20.6-18.7-6.1-39.2-1c-0.8 0.2-1.7-0.1-2.3-0.7q-7.3-7.9-16.2-15.5-11.5-10-25.4-15.4-9.2-3.6-17.4-4.4-9-0.8-18.1 1.1-12.9 2.7-22.7 8.7-17.9 11-32.8 25.7c-0.4 0.4-0.9 0.6-1.5 0.5q-27.6-6.9-52.2 7-17.1 9.7-24.5 27.3-8.7 20.8-2.4 42.9c0.1 0.3-0.1 0.6-0.3 0.8q-20.6 11-35.8 28.7-7.7 8.9-12.2 19.1-6.6 14.8-4.6 31.2 1.6 12.9 9.9 22.9 5.5 6.5 15.4 12.7 14 8.6 30.2 12.6 9.8 2.5 19.7 4.3 14.7 2.7 29 7.1 22.9 7 39.8 23.9 8 7.9 15.2 16.5 3.7 4.5 7.8 8.5 4.7 4.6 11 6.4 3.3 0.9 5.5 0.2 2.9-0.9 4.7-3.6"/><path class="m" d="m499.7 585.8q5.8 7.6 9.4 15.4 0.3 0.8 0.9 0.3"/><path class="n" d="m510 601.5q1.2 12.2 0.8 24.5"/><path class="n" d="m510.8 626v26"/><path class="n" d="m510.8 652q-0.1 20-0.1 40 0 0.8-0.5 1.5"/><path class="o" d="m291.2 657.5q-4-0.1-7.7 1.3"/><path class="p" d="m573.3 552.8q-10.6 9.5-19.6 20.5"/><path class="q" d="m553.7 573.3l-4.5 5"/><path class="r" d="m549.2 578.3l-4.5 4.2"/><path class="s" d="m544.7 582.5l-3.2 2"/><path class="t" d="m541.5 584.5q-4.6 2.3-9.5 3.5"/><path class="u" d="m532 588l-4.5-0.5"/><path class="v" d="m527.5 587.5q-3.4-2.1-5.7-5.5"/><path class="a" d="m521.8 582q-0.7-2-0.5-2.9 0.5-2.2 0.5-5.8 0-69-0.2-138.1 0-8.3 1-13.4 1.7-8.7 9.7-14.2 9-6.2 21-6.2 5.3 0 12 0.4c0.4 0.1 0.8-0.2 0.9-0.5q8-20.4 20-37.5 4-5.6 7.6-7.7 3.9-2.3 7.9-1.3 5.4 1.4 6.9 6 1.2 3.5-0.5 8.3-2.1 5.7-6.2 11.1-9.5 12.6-12.9 28.4-1.6 7.3-0.9 10.8 1.5 7.4 11.2 6.6 13.7-1.1 23.6-12.1 13.6-15.1 15-34.7 0.6-8.2-1.3-14.8-2.1-7.6-7.2-13.3-14-16.2-36.4-13.6-12 1.3-24 5.7c-0.5 0.2-1-0.1-1.1-0.5q-6.4-27.1-29.8-39.6-9.4-5-18.8-6.3-13.8-1.7-26.9 3.9-28.5 12.3-37.8 42.3c-0.1 0.2-0.4 0.4-0.6 0.3q-14.9-5.5-27-6.3-17.1-1.1-29.3 9.6-7.5 6.7-10.6 15.4-3.2 9-1.8 19.3 2.4 18.5 14.3 32.1 10.3 11.9 25.4 12.6 7.4 0.4 9.5-5.1 1.2-3.2 0.1-9.3-3-16.4-13-30-3.5-4.8-6.2-10.2-1.7-3.1-1.9-6.2-0.5-7.1 6.1-9.8 5-2 9.1 0.7 3 1.9 5.6 5.2 1 1.2 4.5 6.3 10.8 15.4 17.7 33.8c0.2 0.4 0.6 0.7 1 0.6q4.5-0.7 9-0.7 5 0 9 0.6 6.5 0.9 12.2 4 6 3.2 9.5 8.1 4.3 6.2 4.3 14.3 0 62.6 0.2 125.2 0 15.2-0.7 26.8-0.1 2.4-1.3 5.5"/><path class="w" d="m767 717.5l22 39.3c0.1 0.2-0.1 0.4-0.3 0.4l-30.4 0.1"/><path class="x" d="m758.3 757.3h-60"/><path class="y" d="m698.3 757.3q-80-0.1-160-0.1-1.7 0-3.3 0.3"/><path class="z" d="m535 757.5q-0.6 0.1-1.1-0.2-0.4-0.1-0.7-0.7-1.4-2.4-3-4.6"/><path class="A" d="m530.3 752l-2.3-3.8"/><path class="B" d="m528 748.3l-3.2-5.4c-0.1-0.3-0.4-0.5-0.7-0.5q-12.6-0.8-25.8-0.1c-0.5 0-0.9 0.3-1.1 0.6l-2.9 5.1"/><path class="A" d="m494.3 748l-1.5 2.5"/><path class="z" d="m492.8 750.5l-3.8 6.8"/><path class="y" d="m489 757.3h-163.5"/><path class="x" d="m325.5 757.3h-38"/><path class="w" d="m287.5 757.3h-42.7c-0.4 0-0.6-0.4-0.5-0.8l16.4-40"/><path class="C" d="m527.5 587.5q-0.3 1.3-0.6 2.7-0.4 1.3-0.4 2.7 0.4 17.8-0.5 35.6-0.3 6.6-0.3 23 0.1 13.5 1.7 23.9-0.2 0.5 0.4 0.6"/><path class="D" d="m510.8 652q0.2 4.1 0.6 1 0.8-7.1 0.7-14.3 0-0.2 0-4.9 0-4.1-0.8-8.1-0.1-0.3-0.3 0l-0.2 0.3"/><path class="E" d="m521.8 582q-7.9 8.5-11.8 19.5"/><path class="F" d="m557 656.7q0.2-1.7 0-3.3-0.4-3.1-0.4-3.2-1.2-19.5-0.6-32.5 0.7-15 1.1-30 0.1-4.4-1.6-8.4-0.2-0.5-0.3 0 0 0.2-0.1 0l-1.4-6.1"/><path class="G" d="m533.5 671q-1 0.2-0.8-0.3-1.4-2.1-1.4-3.7-1.1-29.9 0.7-59.7 0.2-4.9 0.1-9.6-0.1-4.8-0.1-9.7"/><path class="H" d="m552.8 658.7q-2.2-3.5-2-9 0.2-9 0.4-14.5 0.3-9.9 0.3-14.5 0.1-13.8 0.3-27.7 0-5-2.6-14.8"/><path class="I" d="m546.8 661.8q0-1-0.7-1.7c-0.2-0.3-0.3-0.6-0.3-0.8q0.8-20.3 0.1-40.5-0.4-11.9-0.2-23.8 0.1-6.3-1-12.5"/><path class="J" d="m544.3 663.3q-1.9-2.7-2.1-6-0.6-18.7 0.4-37.3 0.9-15.3-0.1-30.5 0-1.1-0.5-2.5-0.3-1.2-0.5-2.5"/><path class="K" d="m325.5 757.3l-0.7 0.2q-0.4 0.2 0 0.2 3.2 0.1 6.5 0.2 2.8 0.1 0.9 0.5-0.4 0 0 0.2 10.6 3.7 16.1 4.2 6.5 0.5 23.6 2.8 29.2 3.8 77.1 6.3 11.9 0.7 23.9 0.7 0.3 0 0.5 0.1 0.2 0.1 0.3 0.2 0.3 0.1 0.6 0.1 10.5 0.4 20.9 0.9 0.1 0 6.1 0.4 5 0.4 11.2 0 9-0.7 29.4-1 7.2-0.1 16.7-0.6 8.3-0.4 16.6-0.6 12.1-0.2 20-0.7 14.3-0.8 28.6-1.5 11.1-0.5 19.9-1.5 29.2-3.5 58-9.2 1.6-0.3 0-0.5-1.9-0.1-3.4-1.4"/><path class="L" d="m528 748.3q-1.8 1.1-4 1.2-8 0.1-16.1-0.3-1.8-0.1-6.8-0.7-3.4-0.5-6.8-0.5"/><path class="M" d="m530.3 752q-2.2 0.7-5.3 0.8-15.4 0.1-28.7-1.6-2.6-0.3-3.5-0.7"/><path class="N" d="m287.5 757.3l-8.5 1.2q-0.8 0.1 0 0.4 5.9 2.1 11.9 3.2 10.5 2.1 12 2.4 21.3 4.9 47.9 7.5 64.3 6.3 116.7 7.3 9.5 0.1 15.3 0.2 8.3 0.1 15.4 0.2 17.9 0.3 45.2-0.4 52.8-1.4 69.6-2.3 7.6-0.4 13.2-0.6 8.9-0.3 13.1-0.6 36.1-2.5 72-6.7 2.5-0.3 5.9-1 2.9-0.7 5.8-1.2 5.8-1 8.9-1.7 4.1-1.1 8.2-2.1 3.8-1 8.4-1.7 5.1-0.7 10.3-1.8c0.3-0.1 0.6-0.2 0.7-0.5q1.2-1.8-1.2-1.8"/><path class="O" d="m535 757.5q-1.5 2.6-4.3 2.6-1.8 0-1.9 0-15.7 1.1-36-0.4-3.1-0.2-3.8-2.5"/><path class="a" d="m344.4 486.3q18.5 14.6 41.8 16.7c0.3 0 0.5-0.3 0.5-0.5q-2.4-21.3-17.2-36.8-1.9-2-3.8-4.1-6.5-7.2-2.2-13.5 2.9-4.3 7.8-5.2 5.4-1 9.9 3.4 26.5 25.8 33.8 62.4c0 0.3 0.3 0.6 0.6 0.7q34.6 10.4 60 35.3 0.6 0.7 0.6-0.3 0.2-11.2 0-21.9-0.1-7-1.4-12.5-2.2-8.9-10.9-12.9-7-3.4-15.2-9.3-14.4-10.3-21-26.7-1.7-4.1-4.5-7.4-1.9-2-5.1-3.3-4.8-2-9.7-3.7-6.5-2.4-9.4-4.1-7.8-4.4-13.7-11.1-5.7-6.5-10.1-14c-0.3-0.4-0.8-0.6-1.3-0.3q-13.4 6.8-24.4 17.6-6.2 6-10.3 13.6-3.1 5.6-4.3 11.7-1.2 6.6 0.2 12.3 2.1 8.2 9.3 13.9z"/><path class="a" d="m650.9 442.6q7.4 0.5 9.7 8 1.3 4.3-1.2 8-1.6 2.6-4.6 5.5-15.8 15.5-18.5 38.2c-0.1 0.4 0.2 0.7 0.6 0.6q12.6-1.8 24.6-6.9 10.5-4.5 18.4-11.6 10.4-9.2 7.7-23.5-1.2-6.7-4.3-12.2-5.5-9.9-14.3-17.7-9.3-8.1-20.5-13.9c-0.5-0.3-1.1-0.1-1.4 0.4q-4.2 7.3-9.9 14-7.6 8.8-18.5 13.2-7.4 3-11.7 4.3-3.9 1.2-6.7 3.6-1.9 1.7-4.2 6-2.2 4.2-4.4 8.4-2.9 5.5-4.9 8.1-3.2 4.3-7.3 7.9-8.2 7.4-18.2 12.4-1.3 0.6-5.1 3-5 3.2-7.1 8.2-1.5 3.5-1.9 8-0.1 0.9-0.4 8.3-0.3 11 0.2 22.1 0 0.5 0.4 0.1 25.6-25.4 60.3-35.5c0.3-0.1 0.5-0.4 0.6-0.7q6.1-30.4 25.8-54.3 4.1-5 9.1-9.2 3.7-3.1 7.7-2.8z"/><path class="a" d="m454.9 463.3q9.1 8.1 20.4 14.1c0.2 0.1 0.6-0.1 0.6-0.4q0.6-6.6 1.3-12 2.4-18.1 1.1-36.2-0.2-3-2.6-4-3.7-1.6-7.9-1.4-3.7 0.1-7.7 1.8-13 5.8-14.1 20.1-0.3 5.1 1.8 9.1 2.4 4.7 7.1 8.9z"/><path class="a" d="m568.1 428.9q-7.8-6.9-18.2-5-2.4 0.5-3.8 1.6-1.3 1-1.6 3.5-1.1 7.8-0.5 17 1.2 18.3 3 31.4c0 0.3 0.3 0.4 0.5 0.3q12-6.9 22.2-16.3 7.2-6.6 6.7-15.8-0.4-9.8-8.3-16.7z"/><path class="a" d="m482 367q8.1 7.1 17.3 12.9 0.1 0 2.2 1.4 3.2 2.2 6.9 2.5 3.1 0.3 7.8-1.7 13.4-5.8 22.9-12 6.7-4.5 7.4-12.4 0.4-4.2-0.3-7.4-0.8-4-3.8-6.7-8.8-8.2-20.4-15.8-4.5-2.9-7.6-3.2-4.1-0.4-8.5 1.6-11.9 5.4-21 11.7-4.7 3.3-6.3 6.2-2.2 3.8-2.4 8.9-0.1 8.7 5.8 14z"/><path class="a" d="m499.3 355.8q4.9 3.1 10.1 5.9 1.7 1 3.5 0.3 6-2.1 11.9-5.5 2.1-1.1 0.2-2.6-4.4-3.5-10.9-6.8-1.4-0.7-2.9-0.3-4.9 1.5-10.3 4.3-2.3 1.1-2.4 1.2-2.2 1.5 0.8 3.4z"/><path class="P" d="m582 648.5q-1.5-1.3-1-3.5 0.2-0.8 0-1.6-2.7-11.4-2.8-21.9 0-9 1.2-32.3 0.4-8-0.2-21-0.2-5.8-3.8-9.4-1.4-1.4-2.2-6 18.8-15.7 42.7-21.5 7.7-1.9 35.8-8.3 17.2-3.9 34.2-14.1 27.3-16.4 25.4-46.3-0.6-9.7-4.7-19.3-5.9-13.7-16.6-24.6-13.5-13.7-30.6-24c-0.4-0.2-0.5-0.6-0.4-1q5-19.3-1-37.2-3.2-9.6-9.3-17.6-11.2-14.6-29.6-20.6-18.7-6.1-39.2-1c-0.8 0.2-1.7-0.1-2.3-0.7q-7.3-7.9-16.2-15.5-11.5-10-25.4-15.5-9.2-3.5-17.4-4.3-9-0.8-18.1 1.1-12.9 2.7-22.7 8.7-17.9 11-32.8 25.7c-0.4 0.4-0.9 0.6-1.5 0.5q-27.6-6.9-52.2 7-17.1 9.7-24.5 27.3-8.7 20.8-2.4 42.9c0.1 0.3-0.1 0.6-0.3 0.8q-20.6 11-35.8 28.7-7.7 8.9-12.2 19.1-6.6 14.8-4.6 31.2 1.6 12.9 9.9 22.9 5.5 6.5 15.4 12.7 14 8.6 30.2 12.6 9.8 2.5 19.7 4.3 14.7 2.7 29 7.1 22.9 7 39.8 23.9 8 7.9 15.2 16.5 3.7 4.5 7.8 8.5 4.7 4.6 11 6.3 3.3 0.9 5.5 0.3 2.9-0.9 4.7-3.6 5.8 7.6 9.4 15.4 0.3 0.8 0.9 0.3 1.2 12.2 0.8 24.5v26q-0.1 20 0 40 0 0.8-0.5 1.5-3.9-3.9-7.7-7.9-16.6-17.6-39.1-26.7-25.7-10.4-54-12.1-19.7-1.3-37.5-0.2-40.2 2.4-79.7 10.2-0.3 0.1-1.1 0.7-4-0.1-7.7 1.3-0.7-0.4-2 0-8.9 2.1-17.5 3.6-1.1 0.2-0.6-0.9l53.6-118.5c0.2-0.4 0.6-0.6 1-0.7l30.7-4q1.8-0.3 0.1-0.9-15-5.2-27.5-14.6-8.6-6.4-14.4-13.7-12-15.1-14.1-34.1-2.9-25.3 11.1-48.2 15-24.7 38.5-39.7c0.8-0.5 1.2-1.3 1.2-2.3q-1.7-30.7 14.7-54.5 6-8.7 15-15.6 7.7-5.9 17.2-10.1 22.6-10 48.5-7.5c0.4 0.1 0.8-0.1 1.1-0.3q3.7-3.2 7.5-6.7 17.8-16.8 40.5-24.5 10.2-3.5 19.5-4.1 20.7-1.4 40 8.2 20.7 10.3 35.8 27.2c0.2 0.2 0.5 0.3 0.8 0.3q30.3-3.6 55.7 10.4 14.8 8 24.9 22 5.9 8.2 9.6 17.5 6.9 17.8 5.3 37.8c-0.1 0.6 0.2 1.2 0.7 1.6q7.3 5.1 13.6 10.5 16.7 14.2 27.2 33.5 10.2 18.6 9.1 39.3-0.5 10.3-3.8 19.5-5.8 16-18.9 27.3-7.5 6.4-17.5 11.7-16.4 8.7-34.7 13.8-1.6 0.5 0.1 0.9l24.6 6.2c0.8 0.2 1.4 0.7 1.9 1.4l68.8 108q0.6 1-0.5 0.8-28.3-5.4-56.2-9.8-35.9-5.7-70.1-5.6-20.3 0-42 4.5z"/><path fill-rule="evenodd" class="Q" d="m573.3 552.8q-10.6 9.5-19.6 20.5l-4.5 5-4.5 4.2-3.2 2q-4.6 2.3-9.5 3.5l-4.5-0.5q-3.4-2.1-5.7-5.5-0.7-2-0.5-2.9 0.5-2.2 0.5-5.8 0-69-0.2-138 0-8.4 1-13.5 1.7-8.7 9.7-14.2 9-6.2 21-6.2 5.3 0 12 0.4c0.4 0.1 0.8-0.2 0.9-0.5q8-20.4 20-37.5 4-5.6 7.6-7.7 3.9-2.3 7.9-1.3 5.4 1.5 6.9 6 1.2 3.5-0.5 8.3-2.1 5.7-6.2 11.1-9.5 12.6-12.9 28.4-1.6 7.3-0.9 10.9 1.5 7.3 11.2 6.5 13.7-1.1 23.6-12.1 13.6-15.1 15-34.7 0.6-8.2-1.3-14.8-2.1-7.6-7.2-13.3-14-16.2-36.4-13.6-12 1.3-24 5.7c-0.5 0.2-0.9-0.1-1.1-0.5q-6.4-27.1-29.8-39.6-9.4-5-18.8-6.3-13.8-1.7-26.9 3.9-28.5 12.3-37.8 42.3c-0.1 0.2-0.4 0.4-0.6 0.3q-14.9-5.5-27-6.3-17.1-1.1-29.3 9.6-7.5 6.7-10.6 15.4-3.2 9-1.8 19.3 2.4 18.5 14.3 32.1 10.3 11.9 25.4 12.6 7.4 0.4 9.5-5.1 1.2-3.2 0.1-9.3-3-16.4-13-30-3.5-4.8-6.2-10.1-1.7-3.2-1.9-6.2-0.5-7.2 6.1-9.8 5-2.1 9.1 0.6 3 1.9 5.6 5.2 1 1.2 4.5 6.3 10.8 15.4 17.7 33.8c0.2 0.4 0.6 0.7 1 0.6q4.5-0.7 9-0.7 5 0 9 0.6 6.5 0.9 12.2 4 6 3.3 9.5 8.1 4.3 6.2 4.3 14.3 0 62.6 0.2 125.2 0 15.2-0.7 26.8-0.1 2.4-1.3 5.5-1.8 2.7-4.7 3.6-2.2 0.7-5.5-0.2-6.3-1.8-11-6.4-4.1-4-7.8-8.5-7.2-8.6-15.2-16.5-16.9-16.9-39.8-23.9-14.3-4.4-29-7.1-9.9-1.8-19.7-4.3-16.2-4-30.2-12.6-9.9-6.2-15.4-12.7-8.3-10-9.9-22.9-2-16.4 4.6-31.2 4.5-10.2 12.2-19.1 15.2-17.7 35.8-28.7c0.2-0.2 0.4-0.5 0.3-0.8q-6.3-22.1 2.4-42.9 7.4-17.6 24.5-27.3 24.6-13.9 52.2-7c0.6 0.1 1.1-0.1 1.5-0.5q14.9-14.7 32.8-25.7 9.8-6 22.7-8.7 9.1-1.9 18.1-1.1 8.2 0.8 17.4 4.4 13.9 5.4 25.4 15.4 8.9 7.6 16.2 15.5c0.6 0.6 1.5 0.9 2.3 0.7q20.5-5.1 39.2 1 18.4 6 29.6 20.6 6.1 8 9.3 17.6 6 17.9 1 37.2c-0.1 0.4 0 0.8 0.4 1q17.1 10.3 30.6 24 10.7 10.9 16.6 24.6 4.1 9.6 4.7 19.4 1.9 29.8-25.4 46.2-17 10.2-34.1 14.1-28.2 6.4-35.9 8.3-23.9 5.8-42.6 21.5zm-228.9-66.5q18.5 14.6 41.8 16.7c0.3 0 0.5-0.2 0.5-0.5q-2.4-21.3-17.2-36.8-1.9-2-3.8-4.1-6.5-7.2-2.2-13.5 2.9-4.3 7.8-5.2 5.4-1 9.9 3.4 26.5 25.8 33.8 62.4c0 0.3 0.3 0.6 0.6 0.7q34.6 10.4 60 35.3 0.6 0.7 0.6-0.3 0.2-11.1 0-21.9-0.1-7-1.4-12.5-2.2-8.9-10.9-12.9-7-3.3-15.2-9.3-14.4-10.3-21-26.7-1.7-4.1-4.5-7.3-1.9-2.1-5.1-3.4-4.8-2-9.7-3.7-6.5-2.4-9.4-4.1-7.8-4.3-13.7-11.1-5.7-6.5-10.1-14c-0.3-0.4-0.8-0.6-1.3-0.3q-13.3 6.8-24.4 17.6-6.2 6-10.3 13.6-3.1 5.6-4.3 11.7-1.2 6.7 0.2 12.3 2.1 8.2 9.3 13.9zm306.5-43.7q7.4 0.5 9.7 8 1.3 4.3-1.2 8-1.6 2.6-4.6 5.5-15.8 15.5-18.5 38.2c-0.1 0.4 0.2 0.7 0.6 0.7q12.6-1.9 24.6-7 10.5-4.5 18.4-11.6 10.4-9.2 7.7-23.5-1.2-6.7-4.3-12.2-5.5-9.9-14.3-17.7-9.3-8.1-20.5-13.9c-0.5-0.2-1.1-0.1-1.4 0.4q-4.2 7.3-9.9 14-7.6 8.8-18.5 13.2-7.4 3-11.7 4.3-3.9 1.2-6.7 3.6-1.9 1.7-4.2 6-2.2 4.2-4.4 8.4-2.9 5.5-4.9 8.1-3.2 4.3-7.3 7.9-8.2 7.4-18.2 12.4-1.2 0.6-5.1 3-5 3.2-7.1 8.2-1.5 3.5-1.9 8-0.1 0.9-0.4 8.3-0.3 11 0.2 22.1 0 0.5 0.4 0.2 25.6-25.5 60.3-35.6c0.3-0.1 0.5-0.3 0.6-0.7q6.1-30.4 25.8-54.3 4.1-5 9.1-9.2 3.7-3.1 7.7-2.8zm-196 20.7q9.1 8.1 20.4 14.1c0.2 0.1 0.6-0.1 0.6-0.4q0.6-6.6 1.3-12 2.4-18 1.1-36.2-0.2-3-2.6-4-3.7-1.6-7.9-1.4-3.7 0.1-7.7 1.8-13 5.8-14.1 20.1-0.3 5.1 1.8 9.1 2.4 4.7 7.1 8.9zm113.2-34.4q-7.8-6.9-18.2-5-2.4 0.5-3.8 1.6-1.3 1-1.6 3.5-1.1 7.8-0.5 17 1.2 18.3 3 31.4c0 0.3 0.3 0.4 0.5 0.3q12-6.9 22.2-16.3 7.2-6.6 6.7-15.8-0.4-9.8-8.3-16.7z"/><path fill-rule="evenodd" class="R" d="m521.8 582q-7.9 8.5-11.8 19.5-0.6 0.5-0.9-0.3-3.6-7.8-9.4-15.4 1.2-3.1 1.3-5.5 0.7-11.6 0.7-26.8-0.2-62.6-0.2-125.3 0-8-4.3-14.2-3.5-4.9-9.5-8.1-5.7-3.1-12.2-4-4-0.6-9-0.6-4.5 0-9 0.7c-0.4 0.1-0.8-0.2-1-0.6q-6.9-18.4-17.7-33.8-3.5-5.1-4.5-6.3-2.6-3.3-5.6-5.2-4.1-2.7-9.1-0.7-6.6 2.7-6.1 9.8 0.2 3.1 1.9 6.2 2.7 5.4 6.2 10.2 10 13.6 13 30 1.1 6.1-0.1 9.3-2.1 5.5-9.5 5.1-15.1-0.7-25.4-12.6-11.9-13.6-14.3-32.2-1.4-10.2 1.8-19.2 3.1-8.8 10.6-15.4 12.2-10.7 29.3-9.6 12.1 0.8 27 6.3c0.2 0.1 0.5-0.1 0.6-0.3q9.3-30 37.8-42.3 13.1-5.6 26.9-3.9 9.4 1.3 18.8 6.3 23.4 12.5 29.8 39.6c0.2 0.4 0.6 0.7 1.1 0.5q12-4.4 24-5.7 22.4-2.6 36.4 13.6 5.1 5.7 7.2 13.3 1.9 6.6 1.3 14.8-1.4 19.6-15 34.7-9.9 11-23.6 12.1-9.7 0.8-11.2-6.6-0.7-3.5 0.9-10.8 3.4-15.8 12.9-28.4 4.1-5.4 6.2-11.2 1.7-4.7 0.5-8.2-1.5-4.6-6.9-6-4-1-7.9 1.3-3.6 2.1-7.6 7.7-12 17.1-20 37.5c-0.1 0.3-0.5 0.6-0.9 0.5q-6.7-0.4-12-0.4-12 0-21 6.2-8 5.5-9.7 14.2-1 5.1-1 13.4 0.2 69 0.2 138 0 3.7-0.5 5.9-0.2 0.9 0.5 2.9zm-39.8-215q8.1 7.1 17.3 12.9 0.1 0 2.2 1.4 3.2 2.2 6.9 2.5 3.1 0.3 7.8-1.7 13.4-5.8 22.9-12 6.7-4.5 7.4-12.4 0.4-4.2-0.3-7.4-0.8-4-3.8-6.7-8.8-8.2-20.4-15.8-4.5-2.9-7.6-3.2-4.1-0.4-8.5 1.6-11.9 5.4-21 11.7-4.6 3.3-6.3 6.2-2.2 3.8-2.3 8.9-0.2 8.7 5.7 14z"/><path fill-rule="evenodd" class="Q" d="m482 367q-5.9-5.3-5.8-14 0.2-5.1 2.4-8.9 1.6-2.9 6.3-6.2 9.1-6.3 21-11.7 4.4-2 8.5-1.6 3.1 0.3 7.6 3.2 11.6 7.6 20.4 15.8 3 2.7 3.8 6.7 0.7 3.2 0.3 7.4-0.7 7.9-7.4 12.4-9.5 6.2-22.9 12-4.7 2-7.8 1.7-3.7-0.3-6.9-2.5-2.1-1.4-2.2-1.4-9.2-5.8-17.3-12.9zm17.3-11.3q4.9 3.2 10.1 6 1.7 1 3.5 0.3 6-2.1 11.9-5.4 2.1-1.2 0.2-2.7-4.4-3.5-10.9-6.8-1.4-0.7-2.9-0.3-4.9 1.5-10.3 4.3-2.3 1.1-2.4 1.2-2.2 1.5 0.8 3.4z"/><path class="R" d="m499.3 355.8q-3-2-0.8-3.5 0.1-0.1 2.4-1.3 5.4-2.7 10.3-4.2 1.5-0.4 2.9 0.3 6.5 3.3 10.9 6.8 1.9 1.5-0.2 2.7-5.9 3.3-11.9 5.4-1.8 0.7-3.5-0.3-5.2-2.8-10.1-6z"/><path class="R" d="m344.4 486.3q-7.2-5.7-9.3-13.9-1.4-5.7-0.2-12.3 1.2-6.1 4.3-11.7 4.1-7.6 10.3-13.6 11-10.8 24.4-17.6c0.5-0.3 1-0.1 1.3 0.3q4.4 7.5 10.1 14 5.9 6.7 13.7 11.1 2.9 1.7 9.4 4.1 4.9 1.7 9.7 3.7 3.2 1.3 5.1 3.3 2.8 3.3 4.5 7.4 6.6 16.4 21 26.7 8.2 5.9 15.2 9.3 8.7 4 10.9 12.9 1.3 5.5 1.4 12.5 0.2 10.7 0 21.9 0 1-0.6 0.3-25.4-24.9-60-35.3c-0.3-0.1-0.6-0.4-0.6-0.7q-7.3-36.6-33.8-62.4-4.5-4.4-9.9-3.4-4.9 0.9-7.8 5.2-4.3 6.3 2.2 13.5 1.9 2.1 3.8 4.1 14.8 15.5 17.2 36.8c0 0.2-0.2 0.5-0.5 0.5q-23.3-2.1-41.8-16.7z"/><path class="R" d="m650.9 442.6q-4-0.3-7.7 2.8-5 4.2-9.1 9.2-19.7 23.9-25.8 54.3c-0.1 0.3-0.3 0.6-0.6 0.7q-34.7 10.1-60.3 35.5-0.4 0.4-0.4-0.1-0.5-11.1-0.2-22.1 0.3-7.4 0.4-8.3 0.4-4.5 1.9-8 2.1-5 7.1-8.2 3.8-2.4 5.1-3 10-5 18.2-12.4 4.1-3.6 7.3-7.9 2-2.6 4.9-8.1 2.2-4.2 4.4-8.4 2.3-4.3 4.2-6 2.8-2.4 6.7-3.6 4.3-1.3 11.7-4.3 10.9-4.4 18.5-13.2 5.7-6.7 9.9-14c0.3-0.5 0.9-0.6 1.4-0.4q11.2 5.8 20.5 13.9 8.8 7.8 14.3 17.7 3.1 5.5 4.3 12.2 2.7 14.3-7.7 23.5-7.9 7.1-18.4 11.6-12 5.1-24.6 6.9c-0.4 0.1-0.7-0.2-0.6-0.6q2.7-22.7 18.5-38.2 3-2.9 4.6-5.5 2.5-3.7 1.2-8-2.3-7.5-9.7-8z"/><path class="R" d="m454.9 463.3q-4.7-4.2-7.1-8.9-2.1-4-1.8-9.1 1.1-14.3 14.1-20.1 4-1.7 7.7-1.8 4.2-0.2 7.9 1.4 2.4 1 2.6 4 1.3 18.1-1.1 36.2-0.7 5.4-1.3 12c0 0.3-0.4 0.5-0.6 0.4q-11.3-6-20.4-14.1z"/><path class="R" d="m568.1 428.9q7.9 6.9 8.3 16.7 0.5 9.2-6.7 15.8-10.2 9.4-22.2 16.3c-0.2 0.1-0.5 0-0.5-0.3q-1.8-13.1-3-31.4-0.6-9.2 0.5-17 0.3-2.5 1.6-3.5 1.4-1.1 3.8-1.6 10.4-1.9 18.2 5z"/><path class="S" d="m573.3 552.8q0.8 4.6 2.1 6 3.6 3.6 3.9 9.5 0.5 12.9 0.1 20.9-1.2 23.3-1.1 32.3 0 10.5 2.7 21.9 0.2 0.8 0 1.6-0.5 2.2 1 3.5-12.9 3-25 8.2 0.2-1.6 0-3.3-0.4-3.1-0.4-3.2-1.2-19.5-0.6-32.4 0.7-15 1.1-30 0.1-4.5-1.6-8.5-0.2-0.5-0.3 0 0 0.2-0.1 0l-1.4-6q9-11 19.6-20.5z"/><path class="T" d="m553.7 573.3l1.4 6q0.1 0.2 0.1 0 0.1-0.5 0.3 0 1.7 4 1.6 8.5-0.4 15-1.1 30-0.6 12.9 0.6 32.4 0 0.1 0.4 3.2 0.2 1.7 0 3.3l-4.3 2q-2.1-3.4-2-8.9 0.3-9.1 0.4-14.5 0.4-10 0.4-14.5 0.1-13.9 0.2-27.8 0.1-4.9-2.5-14.7z"/><path class="U" d="m549.2 578.3q2.6 9.8 2.5 14.7-0.1 13.9-0.2 27.8 0 4.5-0.4 14.5-0.1 5.4-0.4 14.5-0.1 5.5 2 8.9l-5.9 3.1q0-1-0.7-1.7c-0.2-0.3-0.3-0.6-0.3-0.8q0.8-20.3 0.1-40.5-0.4-11.9-0.2-23.8 0.1-6.3-1-12.5z"/><path class="V" d="m521.8 582q2.3 3.4 5.7 5.5-0.3 1.3-0.6 2.7-0.4 1.3-0.4 2.7 0.4 17.8-0.5 35.6-0.3 6.6-0.2 23 0 13.5 1.6 23.9-0.2 0.5 0.4 0.6-8.7 9-15.5 19.3c-0.2 0.3-0.5 0.3-0.7 0.1q-0.9-0.8-1.3-1.9 0.5-0.7 0.5-1.5-0.1-20 0-40 0.2 4.1 0.6 1 0.8-7.1 0.7-14.3 0-0.2 0-4.9 0-4.1-0.8-8.1-0.1-0.3-0.3 0l-0.2 0.3q0.4-12.3-0.8-24.5 3.9-11 11.8-19.5z"/><path class="W" d="m544.7 582.5q1.1 6.2 1 12.5-0.2 11.9 0.2 23.8 0.7 20.2-0.1 40.5c0 0.2 0.1 0.5 0.3 0.8q0.7 0.6 0.7 1.6-1.1 1.1-2.6 1.6-1.8-2.7-2-6.1-0.6-18.6 0.4-37.2 0.9-15.3-0.1-30.5 0-1.1-0.5-2.5-0.3-1.2-0.5-2.5z"/><path class="X" d="m541.5 584.5q0.2 1.3 0.5 2.5 0.5 1.4 0.5 2.5 1 15.2 0.1 30.5-1 18.6-0.4 37.3 0.2 3.3 2 6l-10.7 7.7q-1 0.2-0.8-0.3-1.4-2.1-1.5-3.7-1-29.9 0.8-59.7 0.2-4.9 0.1-9.6-0.1-4.8-0.1-9.7 4.9-1.2 9.5-3.5z"/><path class="Y" d="m527.5 587.5l4.5 0.5q0 4.9 0.1 9.7 0.1 4.7-0.1 9.6-1.8 29.8-0.8 59.7 0.1 1.6 1.5 3.7-0.2 0.5 0.8 0.3l-5.8 5q-0.5-0.1-0.3-0.6-1.6-10.4-1.7-23.9 0-16.4 0.3-23 0.9-17.8 0.5-35.6 0-1.4 0.4-2.7 0.3-1.4 0.6-2.7z"/><path class="V" d="m510.8 652v-26l0.2-0.3q0.2-0.3 0.3 0 0.8 4 0.8 8.1 0 4.7 0 4.9 0.1 7.2-0.7 14.3-0.4 3.1-0.6-1z"/><path class="Z" d="m291.2 657.5q-8.1 34.9-15.1 69.8c-0.1 0.2 0.1 0.5 0.4 0.5h213.4c0.5 0 1 0.2 1.4 0.6l5.1 6.7c0.2 0.3 0.5 0.4 0.9 0.4h27q1.5 0 2.7-1.5l4.3-5.6c0.3-0.4 0.8-0.6 1.4-0.6h228.6c0.5 0 0.8-0.6 0.6-1q-3.2-5.9-6.2-12-3.4-7-4.9-12.5-2.6-9.2-3.2-18.7-0.1-1 0.4-0.1l19 34 22 39.3c0.1 0.2-0.1 0.4-0.3 0.4l-30.4 0.1h-60q-80-0.1-160-0.1-1.7 0-3.3 0.3-0.6 0.1-1.1-0.2-0.4-0.1-0.7-0.7-1.4-2.4-2.9-4.6l-2.3-3.7-3.2-5.4c-0.1-0.3-0.4-0.5-0.7-0.5q-12.6-0.8-25.8-0.1c-0.5 0-0.9 0.2-1.1 0.6l-2.9 5.1-1.5 2.5-3.8 6.8h-163.5-38-42.7c-0.4 0-0.6-0.4-0.5-0.8l16.4-40 22.8-57.7q3.7-1.4 7.7-1.3z"/><path class="a0" d="m260.7 716.5l-16.4 40c-0.1 0.4 0.1 0.8 0.5 0.8h42.7l-8.5 1.2q-0.8 0.1 0 0.4 5.9 2.1 11.9 3.2 10.5 2.1 12 2.4 21.3 4.9 47.9 7.5 64.3 6.3 116.7 7.3 9.5 0.1 15.3 0.2 8.3 0.1 15.4 0.2 17.9 0.3 45.2-0.4 52.8-1.4 69.6-2.3 7.6-0.4 13.2-0.6 8.9-0.3 13.1-0.6 36.1-2.5 72-6.7 2.5-0.3 5.9-1.1 2.9-0.6 5.8-1.1 5.8-1 8.9-1.7 4.1-1.1 8.2-2.1 3.8-1 8.4-1.7 5.1-0.7 10.3-1.8c0.3-0.1 0.6-0.2 0.7-0.5q1.2-1.8-1.2-1.8l30.4-0.1c0.2 0 0.4-0.2 0.3-0.4l-22-39.3q0.7 0.5 1.1-0.2 1.9-1.1 4.1-0.8 3 0.2 3.1 0.2 5.7 0.1 10.5 1 9.8 2.1 20.8 5.9 1.1 0.4 3.6 1.8 1.8 1.1 3.8 1.5 3.2 0.8 6 2.4 3 1.9 6 4 5.1 3.7 5.6 4.3 3.1 3.4 0.3 8.6-0.8 1.6-5.1 5.6-2.8 2.7-6.2 4.1-5.5 2.3-11.3 3.6-2.7 0.5-5.3 1.9-6 3-10.5 3.1-2.8 0.1-4.8 0.7-2.9 0.8-4.1 1-4.6 0.5-8.9 2.2-3.1 1.3-5.8 1.8-2.5 0.4-5 1.1-2.4 0.7-4.9 0.9-5.3 0.5-10.5 1.8-2.2 0.6-9.7 1.3-1 0.1-4.4 1-2 0.5-4.6 0.6-15.8 0.6-35.8 4.3-2.5 0.5-6.9 0-3.4-0.4-16.5 1.6-2 0.3-6.8-0.2-3.4-0.3-6.7-0.1-6.3 0.5-12.6 0.5-3.6 0-7 0.5-3.2 0.6-7 0.8-3.6 0.2-7 1.2-2.2 0.6-8.2 0.6-4.2 0-8.1 0.5-10.5 1.4-15.2 0.9-5.5-0.6-18.2-0.3-14.3 0.5-28.5 0.8-17.1 0.3-34.2-0.3-2.5-0.1-7.2 0.4-4.2 0.5-8.4 0-1.7-0.3-3.1 0.6-0.4 0.3-0.9 0.3-19.2-1.9-23.2-1.8-15 0.5-22.8-0.2-5.1-0.4-9.3-0.1-6.9 0.4-7 0.4-10.1 0.2-20.2-0.4-0.1 0-3 0-2.7 0-5.4-1.3-0.8-0.4-1.7-0.5-10.8-0.8-20.1-2.1-1.6-0.2-2.4-0.7-0.5-0.3-0.9-0.3-13.3-1.3-26.6-1.3-2.6 0-6.7-0.7-2.7-0.5-5.5-0.5-3.2-0.1-5.4-0.4-5.7-0.8-11.4-0.7-2.5 0.1-5.3-0.6-2.6-0.6-5.3-0.8-2-0.2-3.9-0.9-2.5-0.8-3.8-1-18.7-2.8-29.6-3.9-3.2-0.3-5.6-1.5-2.8-1.3-4.1-1.6-9.5-2.1-19-3.6-0.9-0.1-4.5-1.5-6.7-2.5-13.4-4.6-1.1-0.3-2.8-0.2-1.6 0.1-2.8-0.5-8.6-3.8-16-9.5-3.2-2.5-2.5-6.5 0.1-1 1.7-4.3 1.1-2.2 2.9-3.5 4.3-3.3 9.4-5.4 16.3-6.6 24.4-9.1 2.2-0.6 6.6-1.1 1.8-0.2 5.8-1.3 3.7-0.9 7.6-0.5z"/><path class="a1" d="m528 748.3q-1.8 1.1-4 1.2-8 0.1-16.1-0.3-1.8-0.1-6.8-0.7-3.4-0.5-6.8-0.5l2.9-5.1c0.2-0.4 0.6-0.6 1.1-0.6q13.2-0.7 25.8 0.1c0.3 0 0.6 0.2 0.7 0.5z"/><path class="a2" d="m528 748.3l2.3 3.7q-2.2 0.7-5.3 0.8-15.4 0.1-28.8-1.5-2.5-0.4-3.4-0.8l1.5-2.5q3.4 0 6.8 0.5 5 0.6 6.8 0.7 8.1 0.4 16.1 0.3 2.2-0.1 4-1.2z"/><path class="a3" d="m492.8 750.5q0.9 0.4 3.4 0.8 13.3 1.6 28.8 1.4 3.1 0 5.2-0.7 1.6 2.2 3 4.6 0.3 0.6 0.7 0.7 0.5 0.3 1.1 0.2-1.5 2.6-4.3 2.6-1.8 0-1.9 0-15.7 1.1-36.1-0.3-3-0.3-3.7-2.5z"/><path class="a4" d="m287.5 757.3h38l-0.7 0.2q-0.4 0.2 0 0.2 3.2 0.1 6.5 0.2 2.8 0.1 0.9 0.5-0.4 0 0 0.2 10.6 3.7 16.1 4.2 6.5 0.5 23.6 2.8 29.2 3.8 77.1 6.3 11.9 0.7 23.9 0.7 0.3 0 0.5 0.1 0.2 0.1 0.3 0.2 0.3 0.1 0.6 0.1 10.5 0.4 20.9 0.9 0.1 0 6.1 0.4 5 0.4 11.2 0 9-0.7 29.4-1 7.2-0.1 16.7-0.6 8.3-0.4 16.6-0.6 12.1-0.2 20-0.7 14.3-0.8 28.6-1.5 11.1-0.5 19.9-1.5 29.2-3.5 58-9.2 1.6-0.3 0-0.5-1.9-0.1-3.4-1.4h60q2.4 0 1.2 1.8c-0.1 0.3-0.4 0.4-0.7 0.5q-5.2 1.1-10.3 1.8-4.6 0.7-8.4 1.7-4.1 1-8.2 2.1-3.1 0.7-8.9 1.7-2.9 0.5-5.8 1.1-3.4 0.8-5.9 1.1-35.9 4.2-72 6.7-4.2 0.3-13.1 0.6-5.6 0.2-13.2 0.6-16.8 0.9-69.6 2.3-27.3 0.7-45.2 0.4-7.1-0.1-15.4-0.2-5.8-0.1-15.3-0.2-52.4-1-116.8-7.3-26.5-2.6-47.8-7.5-1.5-0.3-12-2.4-6-1.1-11.9-3.2-0.8-0.3 0-0.4z"/><path class="a5" d="m325.5 757.3h163.5q0.7 2.2 3.8 2.5 20.3 1.4 36 0.3 0.1 0 1.9 0 2.8 0 4.3-2.6 1.6-0.3 3.3-0.3 80 0 159.9 0.1 1.6 1.3 3.5 1.4 1.6 0.2 0 0.5-28.8 5.7-58 9.2-8.8 1-19.9 1.5-14.3 0.7-28.6 1.5-7.9 0.5-20 0.7-8.3 0.2-16.6 0.6-9.5 0.5-16.7 0.6-20.4 0.3-29.4 1-6.2 0.4-11.2 0-6-0.4-6.1-0.4-10.4-0.5-20.9-0.9-0.3 0-0.6-0.1-0.1-0.1-0.3-0.2-0.2-0.1-0.5-0.1-12 0-23.9-0.7-47.9-2.5-77.1-6.3-17.1-2.3-23.7-2.8-5.4-0.5-16-4.2-0.4-0.2 0-0.2 1.9-0.4-1-0.5-3.2-0.1-6.4-0.2-0.4 0 0-0.2z"/></svg>